<svg width="1119" height="886" viewBox="0 0 1119 886" fill="none" xmlns="http://www.w3.org/2000/svg">
<g id="h_manwoman">
<g clip-path="url(#clip0)">
<path id="Vector" d="M161.25 561.31C200.065 558.222 239.12 561.986 276.63 572.43C291.09 576.43 305.63 581.53 320.63 581.1C339.04 580.57 356.05 571.87 373.02 564.71C399.78 553.41 428.74 545.48 457.67 548.11C510.91 552.94 557.75 592.59 611.18 590.76C656.97 589.2 698.07 557.09 743.87 558.04C774.95 558.68 803.76 574.56 834.58 578.63C874.14 583.85 913.58 569.37 953.39 567.63C987.935 566.142 1022.22 574.189 1052.5 590.89C1074.4 603.02 1096.02 626.68 1087.4 650.18C1084.77 657.35 1079.45 663.73 1079.12 671.36C1078.38 688.36 1100.29 695.56 1111.22 708.58C1124.67 724.58 1119.22 750.95 1103.41 764.64C1087.6 778.33 1064.74 781.17 1044.1 777.74C1023.46 774.31 1004.21 765.44 984.67 757.98C947.512 743.798 908.654 734.553 869.09 730.48C841.73 727.67 813.91 727.36 786.89 732.48C766.66 736.3 747.09 743.11 726.89 746.85C625.83 765.52 525.95 706.52 423.22 706.92C394.35 707.04 365.75 711.86 337.08 715.28C248.21 725.87 158.35 722.92 68.89 719.96C59.84 719.66 50.05 719.09 43.09 713.29C30.09 702.43 35.09 681.38 43.09 666.46C56.21 642.13 74.09 621.16 87.47 597.17C101.99 571.29 133.49 563.52 161.25 561.31Z" fill="#4285F4"/>
<g id="Group" opacity="0.05">
<path id="Vector_2" opacity="0.05" d="M332.82 186.24C333.181 185.638 333.352 184.941 333.31 184.24C333.093 184.892 332.929 185.561 332.82 186.24V186.24Z" fill="url(#paint0_linear)"/>
</g>
<g id="Group_2" opacity="0.05">
<path id="Vector_3" opacity="0.05" d="M332.82 185.22C333.181 184.618 333.352 183.921 333.31 183.22C333.093 183.872 332.929 184.541 332.82 185.22V185.22Z" fill="url(#paint1_linear)"/>
</g>
<path id="Vector_4" d="M781.05 657.05C778.74 658.21 759.74 655.44 743.68 652.81C752.33 650.81 758.68 648.21 761.68 644.81C778.93 624.97 702.92 636.46 678.89 640.51L659.55 636.64L637.89 631.64C622.95 610.64 600.3 568.06 589.34 546.95C592.98 546.13 595.2 545.74 595.2 545.74C595.03 545.08 594.85 544.44 594.67 543.79L595.2 543.69C574.77 466.07 540.05 477.3 540.05 477.3C535.9 477.3 529.8 479.09 522.58 482.03C520.209 473.789 517.199 465.744 513.58 457.97L512.74 456.15C515.17 456.6 516.59 456.88 516.59 456.88C516.59 456.88 516.39 456.34 516 455.35L516.36 455.42L517.21 455.58H517.39L517.74 455.65L518.63 455.82C518.63 455.82 490.63 379.72 430.98 333.94C415.191 321.667 396.301 314.026 376.42 311.87C375.36 311.76 374.34 311.68 373.33 311.61L372.42 311.52C371.65 311.52 370.89 311.44 370.14 311.42H368.54C355.01 311.22 345.14 314.57 333.74 320.42C331.66 321.42 329.54 322.55 327.34 323.74C325.635 323.534 323.942 323.234 322.27 322.84C321.357 322.62 320.463 322.37 319.59 322.09C333.089 315.961 343.682 304.831 349.137 291.046C354.591 277.261 354.481 261.896 348.83 248.19C352.874 241.049 359.068 235.366 366.53 231.95C367.466 231.633 368.303 231.078 368.96 230.34C369.49 229.415 369.73 228.353 369.65 227.29V227.2C369.65 227 369.65 226.81 369.65 226.62C369.65 226.43 369.65 226.38 369.65 226.27V226.18C369.72 221.391 368.044 216.74 364.933 213.097C361.822 209.455 357.491 207.07 352.75 206.39C349.925 205.978 347.169 205.18 344.56 204.02C338.23 201.15 333.05 194.72 332.71 188.02C332.722 187.424 332.776 186.829 332.87 186.24L332.72 186.47C332.72 186.05 332.81 185.64 332.87 185.22C331.45 187.64 327.27 188.52 324.8 186.63C322.59 184.94 321.69 182.16 321.6 179.32C321.628 178.555 321.709 177.794 321.84 177.04C322.309 174.938 322.567 172.794 322.61 170.64C322.71 168.36 322.28 166.29 320.44 165.09C316.54 169.89 310.22 172.18 304.05 172.67C297.88 173.16 291.71 172.07 285.58 171.26C270.44 169.26 253.42 169.5 242 179.65C234.57 186.25 230.83 195.95 227.35 205.26C222.43 218.41 217.53 232.68 217.68 246.39C217.542 252.799 218.759 259.164 221.25 265.07C226.03 276.07 235.73 284.77 238.69 296.41C239.37 299.09 239.69 301.92 241.02 304.35C243.71 309.27 250.02 311.24 255.57 310.48C257.689 312.588 259.969 314.527 262.39 316.28C262.34 316.93 262.28 317.57 262.22 318.21C261.84 322.21 261.3 326.21 260.56 330.01C260.11 329.36 259.48 329.72 257.64 329.72H257H256.84L256.1 329.81L255.29 329.95H255.12L254.18 330.15L253.18 330.4H253.04L251.89 330.71L250.64 331.07H250.58C247.02 332.14 242.68 333.7 238.11 335.46C236.306 324.137 231.07 313.641 223.11 305.39C224.703 303.201 225.997 300.81 226.96 298.28C228.5 294.12 226.91 291.28 224.23 288.81C222.14 286.52 218.98 284.64 216.18 282.56C203.672 273.288 189.457 266.576 174.35 262.81C169.46 261.6 164.41 260.7 159.41 261.25C154.66 261.77 150.14 263.57 145.81 265.59C138.945 268.794 132.374 272.592 126.17 276.94C122 279.86 117.91 283.08 113.09 284.75C105.87 287.25 97.52 286.09 90.86 289.85C81.54 295.12 79.45 307.75 80.86 318.37C82.27 328.99 86 339.57 84.33 350.15C81.82 365.98 68.1 377.22 55.48 387.15C51.48 390.26 47.25 393.92 46.64 398.93C46.26 402.06 47.41 405.15 48.37 408.16C53.661 424.677 53.3269 442.483 47.42 458.79C41.4601 475.08 29.7135 488.606 14.42 496.79C8.62002 499.79 1.59002 502.91 0.230023 509.31C-0.679977 513.62 1.35002 517.41 4.61002 520.45C7.8413 523.67 11.7541 526.124 16.06 527.63C22.4126 529.977 28.9811 531.692 35.67 532.75C41.55 533.68 47.85 534.04 53.22 531.46C59.47 528.46 63.28 522.09 66.58 515.99C75.02 500.41 84.72 490.05 92.74 477.5C93.8 482.08 94.65 485.27 94.74 485.45C88.09 491.45 84.98 501.29 88.62 517.14C102.92 579.44 121.3 594.76 121.3 594.76C121.811 591.392 123.11 588.192 125.09 585.42L125.9 586.42C134.62 597.01 144.64 608.04 152.97 614.17C162.492 621.19 171.102 629.369 178.6 638.52C179.083 639.12 179.425 639.82 179.6 640.57C179.775 641.321 179.779 642.1 179.611 642.852C179.443 643.604 179.107 644.308 178.629 644.911C178.151 645.515 177.543 646.004 176.85 646.34C163.76 652.72 135.11 669.1 169.26 676.42C203.41 683.74 231.26 664.42 241.05 656.29C242.093 655.434 242.756 654.201 242.897 652.859C243.037 651.517 242.643 650.174 241.8 649.12L210.7 610.25L206.87 605.52C208.93 606.98 211.02 608.52 213.18 610.09L207.63 601.22L225.2 603.05C225.71 604.12 226.2 605.17 226.74 606.17C230.24 613.36 233.95 618.98 237.82 622.1C237.471 629.327 239.206 636.502 242.82 642.77C256.82 668.19 334.04 668.03 355.66 667.48C357.673 667.799 359.703 667.996 361.74 668.07C365.114 668.185 368.49 667.964 371.82 667.41L372.52 667.29C376.728 666.675 380.722 665.037 384.15 662.52L414.88 656.37L415.57 656.54C432.91 660.11 465.91 665.83 484.86 662.19C503.02 658.7 513.53 664.76 518.37 668.94C517.849 670.807 517.231 672.646 516.52 674.45H516.79C515.58 677.12 511.11 690.04 529.29 704.58C541.17 714.08 622.08 716.58 649.81 710.71C669.81 706.49 641.4 694.37 637.55 694.37C628.84 694.37 601.8 676.04 598.99 674.12C598.53 673.52 597.47 672.12 595.99 670.12C614.79 672.63 647.89 676.6 654.4 674.43C663.59 671.37 704.4 676.43 704.4 676.43C704.4 676.43 759.55 688.69 786.11 680.52C812.67 672.35 785.13 655.01 781.05 657.05Z" fill="url(#paint2_linear)"/>
<g id="Group_3" opacity="0.05">
<path id="Vector_5" opacity="0.05" d="M420.52 441.52C417.3 442.9 409.64 450.11 399.71 460.47C396.55 439.69 394.51 420.95 395.83 413.15C395.942 411.986 396.345 410.869 397 409.9C403 409.49 415.08 424.4 424.75 437.9C422.07 440.05 420.52 441.52 420.52 441.52Z" fill="url(#paint3_linear)"/>
</g>
<path id="Vector_6" d="M579.06 532.52C579.06 532.52 631.06 635.52 644.06 639.52C657.06 643.52 666.06 637.52 666.06 637.52C666.06 637.52 774.06 617.52 754.06 640.52C734.06 663.52 559.06 649.52 559.06 649.52L515.06 550.52L579.06 532.52Z" fill="#EF91A3"/>
<path id="Vector_7" opacity="0.1" d="M430.06 534.52C430.06 534.52 514.06 478.52 537.06 478.52C537.06 478.52 571.06 467.52 591.06 543.52C591.06 543.52 522.06 555.52 523.06 588.52L510.06 560.52L454.06 622.52L386.06 576.52L430.06 534.52Z" fill="black"/>
<path id="Vector_8" d="M430.06 532.52C430.06 532.52 514.06 476.52 537.06 476.52C537.06 476.52 571.06 465.52 591.06 541.52C591.06 541.52 522.06 553.52 523.06 586.52L510.06 558.52L454.06 620.52L386.06 574.52L430.06 532.52Z" fill="#5D526E"/>
<path id="Vector_9" d="M522.06 504.52C517.06 528.52 491.06 532.52 491.06 532.52L454.06 509.52C454.06 509.52 448.84 475.07 444.43 454.07C442.74 446 441.17 439.91 440.06 438.52C436.06 433.52 499.06 434.52 499.06 434.52C503.481 441.993 507.507 449.694 511.12 457.59C517.98 472.58 524.73 491.68 522.06 504.52Z" fill="#EF91A3"/>
<path id="Vector_10" d="M362.06 323.52L341.06 423.52L290.06 410.52C290.06 410.52 243.06 373.52 257.06 350.52C261.64 343 263.97 332.06 265.06 320.75C267.25 297.44 264.06 272.52 264.06 272.52C264.06 272.52 320.06 257.52 309.06 298.52C304.54 315.36 312.67 322.58 323.82 325.25C339.83 329.06 362.06 323.52 362.06 323.52Z" fill="#EF91A3"/>
<path id="Vector_11" opacity="0.1" d="M323.82 325.23C315.865 329.371 307.028 331.529 298.06 331.52C285.71 331.52 273.82 323.79 264.56 317.02C265.842 302.206 265.675 287.302 264.06 272.52C264.06 272.52 320.06 257.52 309.06 298.52C304.54 315.34 312.67 322.52 323.82 325.23Z" fill="black"/>
<path id="Vector_12" d="M298.06 329.5C328.988 329.5 354.06 304.428 354.06 273.5C354.06 242.572 328.988 217.5 298.06 217.5C267.132 217.5 242.06 242.572 242.06 273.5C242.06 304.428 267.132 329.5 298.06 329.5Z" fill="#EF91A3"/>
<path id="Vector_13" opacity="0.1" d="M293.87 390.32L309.06 411.52L317.7 380.19C321.037 367.658 322.798 354.758 322.94 341.79C323.013 336.291 324.803 330.952 328.06 326.52C343.64 318.02 355.21 313.52 374.85 315.52C394.307 317.643 412.792 325.131 428.24 337.15C486.61 382 514.06 456.52 514.06 456.52C514.06 456.52 434.06 440.52 438.06 458.52C438.06 458.52 403.06 402.52 395.06 411.52C387.06 420.52 412.06 539.52 412.06 539.52L248.06 551.52L205.06 437.52L207.06 352.52C207.06 352.52 249.56 333.02 258.56 333.02C261.71 333.02 261.23 331.92 262.56 337.02C267.69 356.64 282.05 373.82 293.87 390.32Z" fill="black"/>
<path id="Vector_14" opacity="0.1" d="M511.12 457.57C497.21 455.06 457.81 448.65 444.43 454.05C442.74 445.98 441.17 439.89 440.06 438.5C436.06 433.5 499.06 434.5 499.06 434.5C503.481 441.973 507.507 449.674 511.12 457.57V457.57Z" fill="black"/>
<path id="Vector_15" d="M295.87 389.32L311.06 410.52L319.7 379.19C323.037 366.658 324.798 353.758 324.94 340.79C325.013 335.291 326.803 329.952 330.06 325.52C345.64 317.02 357.21 312.52 376.85 314.52C396.307 316.643 414.792 324.131 430.24 336.15C488.61 381 516.06 455.52 516.06 455.52C516.06 455.52 436.06 439.52 440.06 457.52C440.06 457.52 405.06 401.52 397.06 410.52C389.06 419.52 414.06 538.52 414.06 538.52L250.06 550.52L207.06 436.52L209.06 351.52C209.06 351.52 251.56 332.02 260.56 332.02C263.71 332.02 263.23 330.92 264.56 336.02C269.69 355.64 284.05 372.82 295.87 389.32Z" fill="#DFECFB"/>
<path id="Vector_16" opacity="0.1" d="M259.18 313.07C253.56 314.07 247.02 312.18 244.28 307.17C242.98 304.79 242.66 302.02 241.99 299.4C239.09 288.01 229.59 279.5 224.91 268.72C217.03 250.55 223.91 229.72 230.91 211.16C234.32 202.05 237.98 192.55 245.25 186.09C256.43 176.15 273.09 175.92 287.92 177.87C293.92 178.66 299.92 179.73 306.01 179.25C312.1 178.77 318.24 176.53 322.01 171.83C325.23 173.92 324.01 178.75 323.38 182.53C322.75 186.31 323.27 190.63 326.28 192.93C329.29 195.23 334.91 193.33 334.66 189.56C331.95 197.56 337.93 206.42 345.66 209.92C348.208 211.054 350.9 211.835 353.66 212.24C358.3 212.908 362.538 215.242 365.582 218.807C368.625 222.372 370.267 226.923 370.2 231.61V231.7C370.283 232.745 370.049 233.79 369.53 234.7C368.887 235.424 368.067 235.968 367.15 236.28C359.393 239.841 353.055 245.901 349.15 253.49C347.08 257.54 345.52 262.23 341.7 264.7C337 267.7 330.86 266.22 325.28 266.7C320.665 267.14 316.286 268.948 312.704 271.891C309.121 274.833 306.498 278.778 305.17 283.22C303.87 287.85 304.05 292.9 301.17 297.01C300.555 297.94 299.749 298.728 298.806 299.323C297.863 299.918 296.804 300.305 295.7 300.46C291.36 300.93 289.37 297.04 286.26 295.03C278.95 290.31 274.26 296.54 271.97 302.42C269.42 308.79 267.6 311.52 259.18 313.07Z" fill="black"/>
<path id="Vector_17" d="M255.87 310.249C250.208 310.98 243.766 308.781 241.267 303.647C240.082 301.208 239.894 298.426 239.349 295.777C236.994 284.262 227.909 275.31 223.747 264.319C216.74 245.795 224.603 225.316 232.477 207.11C236.317 198.172 240.424 188.857 247.993 182.75C259.633 173.353 276.285 173.915 291.006 176.568C296.962 177.643 302.904 178.997 309.01 178.807C315.116 178.617 321.355 176.671 325.345 172.156C328.461 174.397 327.013 179.163 326.204 182.909C325.395 186.655 325.709 190.995 328.606 193.435C331.504 195.876 337.208 194.245 337.137 190.467C334.05 198.329 339.602 207.464 347.157 211.327C349.648 212.582 352.3 213.489 355.037 214.025C359.64 214.913 363.762 217.446 366.633 221.152C369.504 224.857 370.927 229.481 370.637 234.16L370.633 234.25C370.666 235.297 370.383 236.33 369.821 237.214C369.144 237.907 368.299 238.412 367.369 238.679C359.452 241.868 352.833 247.619 348.571 255.014C346.311 258.961 344.529 263.572 340.596 265.857C335.759 268.63 329.696 266.86 324.1 267.074C319.469 267.295 315.009 268.892 311.291 271.661C307.572 274.43 304.765 278.246 303.227 282.619C301.708 287.182 301.648 292.235 298.576 296.203C297.917 297.103 297.074 297.852 296.104 298.401C295.134 298.95 294.058 299.287 292.948 299.389C288.59 299.653 286.788 295.672 283.777 293.517C276.699 288.454 271.719 294.454 269.152 300.219C266.302 306.46 264.354 309.101 255.87 310.249Z" fill="#572142"/>
<g id="Group_4" opacity="0.05">
<path id="Vector_18" opacity="0.05" d="M418.24 335.17C472.24 376.63 499.76 443.48 503.59 453.28C511.04 454.5 516.06 455.5 516.06 455.5C516.06 455.5 488.61 380.99 430.24 336.16C414.793 324.138 396.308 316.646 376.85 314.52C374.13 314.24 371.57 314.1 369.12 314.06C387.026 316.791 403.936 324.058 418.24 335.17V335.17Z" fill="black"/>
<path id="Vector_19" opacity="0.05" d="M252.56 335C257.69 354.64 272.04 371.82 283.87 388.32L299.06 409.52L302.2 398.16L295.88 389.34C284.05 372.84 269.7 355.66 264.57 336.02C263.24 330.92 263.72 332.02 260.57 332.02C257.735 332.282 254.946 332.907 252.27 333.88L252.56 335Z" fill="black"/>
<path id="Vector_20" opacity="0.05" d="M434.74 449.3C437.99 454.18 440.06 457.5 440.06 457.5C438.31 449.65 452.56 448.27 469.17 449.2C456.14 447.82 442.61 447.23 434.74 449.3Z" fill="black"/>
<path id="Vector_21" opacity="0.05" d="M395.89 413.73C391.16 409.28 387.17 407.13 385.06 409.51C377.06 418.51 402.06 537.51 402.06 537.51L249.42 548.68L250.11 550.51L414.11 538.51C414.11 538.51 392.3 434.89 395.89 413.73Z" fill="black"/>
</g>
<path id="Vector_22" d="M244.35 651.79C234.78 659.71 207.61 678.69 174.06 671.5C140.51 664.31 168.67 648.3 181.49 642.05C182.171 641.722 182.768 641.245 183.237 640.653C183.707 640.062 184.036 639.371 184.201 638.634C184.365 637.897 184.361 637.132 184.188 636.397C184.014 635.662 183.677 634.976 183.2 634.39C175.847 625.418 167.401 617.399 158.06 610.52C149.91 604.52 140.06 593.72 131.56 583.35C127.07 577.92 122.95 572.62 119.56 568.17C118.914 567.337 118.548 566.321 118.514 565.267C118.48 564.213 118.78 563.175 119.371 562.302C119.963 561.429 120.815 560.766 121.806 560.406C122.797 560.046 123.877 560.009 124.89 560.3L190.45 578.1C191.477 578.379 192.387 578.978 193.05 579.81L214.6 606.74L245.05 644.8C245.876 645.823 246.265 647.13 246.134 648.439C246.003 649.747 245.362 650.951 244.35 651.79Z" fill="#EF91A3"/>
<path id="Vector_23" opacity="0.1" d="M214.63 606.71C159.92 566.81 139.27 573.94 131.56 583.32C127.07 577.89 122.95 572.59 119.56 568.14C118.914 567.307 118.548 566.291 118.514 565.237C118.48 564.183 118.78 563.145 119.371 562.272C119.963 561.399 120.815 560.736 121.806 560.376C122.797 560.016 123.877 559.979 124.89 560.27L190.45 578.07C191.477 578.349 192.387 578.948 193.05 579.78L214.63 606.71Z" fill="black"/>
<path id="Vector_24" d="M169.06 483.52C169.06 483.52 81.06 454.52 95.06 515.52C109.06 576.52 127.06 591.52 127.06 591.52C127.06 591.52 132.06 543.52 217.06 606.52L187.06 558.52L222.06 514.52L169.06 483.52Z" fill="#5D526E"/>
<path id="Vector_25" opacity="0.1" d="M148.06 428.52C148.06 428.52 140.06 470.52 169.06 521.52C192.06 561.95 164.76 580.38 152.47 586.29C150.858 587.064 149.047 587.321 147.284 587.026C145.52 586.73 143.891 585.897 142.62 584.64C134.52 576.64 118.99 556.3 128.06 524.52L134.06 508.52L101.06 484.52C101.06 484.52 92.13 451.41 96.06 443.96C99.99 436.51 132.06 416.52 132.06 416.52L148.06 428.52Z" fill="black"/>
<path id="Vector_26" d="M148.06 426.52C148.06 426.52 140.06 468.52 169.06 519.52C192.06 559.95 164.76 578.38 152.47 584.29C150.858 585.064 149.047 585.321 147.284 585.026C145.52 584.73 143.891 583.897 142.62 582.64C134.52 574.64 118.99 554.3 128.06 522.52L134.06 506.52L101.06 482.52C101.06 482.52 92.13 449.41 96.06 441.96C99.99 434.51 132.06 414.52 132.06 414.52L148.06 426.52Z" fill="#EF91A3"/>
<path id="Vector_27" d="M221.06 346.52C221.06 346.52 149.06 387.52 119.06 414.52C89.06 441.52 95.06 450.52 95.06 450.52C95.06 450.52 124.06 396.52 149.06 443.52C149.06 443.52 219.06 392.52 238.06 414.52C257.06 436.52 221.06 346.52 221.06 346.52Z" fill="#DFECFB"/>
<path id="Vector_28" d="M194.06 582.5L254.06 570.5L247.06 601.5L203.58 596.97L194.06 582.5Z" fill="#5D526E"/>
<path id="Vector_29" d="M298.06 450.52L296.06 472.52L224.06 460.52L202.06 446.52L169.06 434.52C172.952 423.795 173.561 412.153 170.81 401.08C169.563 396.304 167.626 391.736 165.06 387.52C151.06 364.52 224.06 374.52 224.06 374.52C223.268 379.705 222.9 384.945 222.96 390.19C223.11 406.9 227.84 430.45 254.06 426.52L276.06 439.52L298.06 450.52Z" fill="#FFC1CD"/>
<path id="Vector_30" d="M227.06 419.52C227.06 419.52 264.06 403.52 282.06 436.52C300.06 469.52 308.06 467.52 308.06 467.52L272.06 444.52L227.06 419.52Z" fill="#FFC1CD"/>
<path id="Vector_31" d="M258.06 586.52C258.06 586.52 230.06 609.52 246.06 638.52C262.06 667.52 362.06 662.52 362.06 662.52C362.06 662.52 298.58 638.67 314.32 558.59C314.32 558.58 269.06 571.52 258.06 586.52Z" fill="#5F5470"/>
<path id="Vector_32" d="M391.06 620.52L381.06 658.52L416.06 651.52C416.06 651.52 401.06 619.52 403.06 610.52C405.06 601.52 391.06 620.52 391.06 620.52Z" fill="#5F5470"/>
<path id="Vector_33" d="M419.06 574.52C419.06 574.52 510.06 583.52 535.06 597.52L554.06 603.52C554.06 603.52 561.06 601.52 576.06 614.52L654.06 632.52L714.06 644.52C714.06 644.52 769.06 654.52 773.06 652.52C777.06 650.52 804.06 667.52 778.06 675.52C752.06 683.52 698.06 671.52 698.06 671.52C698.06 671.52 658.06 666.52 649.06 669.52C640.06 672.52 579.06 663.52 579.06 663.52L519.06 667.52C519.06 667.52 509.06 652.52 483.06 657.52C464.51 661.09 432.2 655.52 415.22 651.99C411.929 651.313 408.915 649.67 406.563 647.27C404.212 644.871 402.63 641.824 402.02 638.52L396.02 606.52L419.06 574.52Z" fill="#FFC1CD"/>
<path id="Vector_34" opacity="0.05" d="M419.06 574.52C419.06 574.52 510.06 583.52 535.06 597.52L554.06 603.52C554.06 603.52 561.06 601.52 576.06 614.52L654.06 632.52L714.06 644.52C714.06 644.52 769.06 654.52 773.06 652.52C777.06 650.52 804.06 667.52 778.06 675.52C752.06 683.52 698.06 671.52 698.06 671.52C698.06 671.52 658.06 666.52 649.06 669.52C640.06 672.52 579.06 663.52 579.06 663.52L519.06 667.52C519.06 667.52 509.06 652.52 483.06 657.52C464.51 661.09 432.2 655.52 415.22 651.99C411.929 651.313 408.915 649.67 406.563 647.27C404.212 644.871 402.63 641.824 402.02 638.52L396.02 606.52L419.06 574.52Z" fill="black"/>
<path id="Vector_35" opacity="0.1" d="M222.96 390.17C215.897 396.246 207.409 400.432 198.289 402.337C189.168 404.241 179.714 403.802 170.81 401.06C169.561 396.291 167.624 391.73 165.06 387.52C151.06 364.52 224.06 374.52 224.06 374.52C223.269 379.698 222.902 384.932 222.96 390.17Z" fill="black"/>
<path id="Vector_36" d="M187.06 401.5C217.436 401.5 242.06 376.876 242.06 346.5C242.06 316.124 217.436 291.5 187.06 291.5C156.684 291.5 132.06 316.124 132.06 346.5C132.06 376.876 156.684 401.5 187.06 401.5Z" fill="#FFC1CD"/>
<path id="Vector_37" opacity="0.1" d="M164.06 427.52C164.06 427.52 206.06 450.52 208.06 465.52C210.06 480.52 202.06 498.52 202.06 498.52C202.06 498.52 221.06 612.52 245.06 620.52L309.06 558.52L363.06 534.52C363.06 534.52 331.06 532.52 328.06 502.52C325.06 472.52 332.06 462.52 296.06 448.52C260.06 434.52 240.56 418.02 240.56 418.02L231.26 420.37L279.06 445.52C279.06 445.52 306.06 461.52 236.06 449.52L170.06 425.52L164.06 427.52Z" fill="black"/>
<path id="Vector_38" d="M163.06 425.52C163.06 425.52 205.06 448.52 207.06 463.52C209.06 478.52 201.06 496.52 201.06 496.52C201.06 496.52 220.06 610.52 244.06 618.52L308.06 556.52L362.06 532.52C362.06 532.52 330.06 530.52 327.06 500.52C324.06 470.52 331.06 460.52 295.06 446.52C259.06 432.52 239.56 416.02 239.56 416.02L230.26 418.37L278.06 443.52C278.06 443.52 305.06 459.52 235.06 447.52L169.06 423.52L163.06 425.52Z" fill="#FF808C"/>
<path id="Vector_39" opacity="0.1" d="M178.06 433.52C178.06 433.52 137.06 418.52 147.06 466.52C157.06 514.52 209.06 597.52 209.06 597.52L331.06 555.52C331.06 555.52 369.06 526.52 359.06 523.52C349.06 520.52 296.06 539.52 296.06 539.52L224.06 550.52L207.06 502.52C207.06 502.52 223.06 491.52 218.06 477.52L217.91 477.1C211.117 458.463 197.424 443.148 179.66 434.32L178.06 433.52Z" fill="black"/>
<path id="Vector_40" d="M176.06 431.52C176.06 431.52 135.06 416.52 145.06 464.52C155.06 512.52 207.06 595.52 207.06 595.52L329.06 553.52C329.06 553.52 367.06 524.52 357.06 521.52C347.06 518.52 294.06 537.52 294.06 537.52L222.06 548.52L205.06 500.52C205.06 500.52 221.06 489.52 216.06 475.52L215.91 475.1C209.117 456.463 195.424 441.148 177.66 432.32L176.06 431.52Z" fill="#FFC1CD"/>
<path id="h_womanHair" d="M178.88 266.63C174.1 265.45 169.15 264.56 164.25 265.1C159.611 265.78 155.115 267.216 150.94 269.35C144.219 272.486 137.784 276.204 131.71 280.46C127.62 283.32 123.62 286.46 118.91 288.11C111.84 290.56 103.66 289.42 97.15 293.11C88.02 298.27 85.98 310.64 87.33 321.04C88.68 331.44 92.33 341.8 90.73 352.16C88.28 367.66 74.83 378.67 62.49 388.35C58.6 391.35 54.43 394.98 53.83 399.88C53.46 402.95 54.58 405.97 55.52 408.88C60.7289 425.003 60.4582 442.397 54.75 458.35C48.9144 474.311 37.4054 487.564 22.42 495.58C16.74 498.58 9.86002 501.58 8.53002 507.84C6.84002 515.84 15.41 521.95 23.03 524.77C29.2503 527.063 35.6813 528.738 42.23 529.77C47.99 530.68 54.15 531.04 59.41 528.51C65.53 525.57 69.26 519.33 72.49 513.37C85.08 490.13 100.49 478.74 108.68 453.6C110.44 448.18 113.24 441.73 118.91 441.18C122.46 440.84 125.67 443.07 128.68 444.97C143.23 454.14 158.52 443.86 172.06 433.27C175.19 430.82 177.88 427.74 181.36 425.83C188.77 421.76 199.57 422.93 204.01 415.73C205.043 413.835 205.762 411.785 206.14 409.66C207.96 401.84 209.78 393.66 207.68 385.88C205.73 378.71 200.68 372.88 197.68 366.03C194.68 359.18 194.52 349.94 200.63 345.72C202.46 344.45 204.63 343.8 206.47 342.49C211.72 338.68 211.84 331.07 211.81 324.58C211.676 322.974 211.952 321.361 212.61 319.89C213.571 318.492 214.836 317.33 216.31 316.49C221.84 312.59 227 306.76 229.38 300.34C232.03 293.19 225.24 289.96 219.82 285.94C207.576 276.873 193.664 270.311 178.88 266.63V266.63Z" fill="#B46D86"/>
<path id="Vector_41" d="M644.56 705C617.41 710.73 538.19 708.3 526.56 699C508.76 684.76 513.14 672.11 514.32 669.5H514.06C514.06 669.5 524.06 645.5 514.06 627.5C514.06 627.5 513.06 605.5 492.06 588.5C471.06 571.5 448.06 523.5 448.06 523.5L436.06 548.5C436.06 548.5 418.06 603.39 399.31 627.76C395.567 632.595 393.018 638.244 391.87 644.25C390.63 650.86 386.35 659.19 373.06 661.5L372.37 661.62C363.069 663.17 353.519 662.035 344.84 658.349C336.161 654.663 328.713 648.579 323.37 640.81C314.37 627.92 304.28 610.04 301.99 592.61C301.243 586.75 301.73 580.799 303.42 575.138C305.109 569.477 307.964 564.232 311.8 559.74L311.91 559.61C333.42 534.16 408.1 446.62 420.06 441.52C420.06 441.52 474.06 389.52 495.06 459.52C516.06 529.52 523.06 550.52 523.06 550.52C523.06 550.52 548.17 595.37 555.06 610.52C562.18 626.18 591.8 665.24 594.81 669.19C597.56 671.07 624.03 689.02 632.56 689.02C636.33 689 664.12 700.87 644.56 705Z" fill="#FFC1CD"/>
<path id="Vector_42" opacity="0.05" d="M518.15 641.59C519 633.82 518.54 624.59 514.06 616.5C514.06 616.5 513.06 594.5 492.06 577.5C471.06 560.5 448.06 512.5 448.06 512.5L436.06 537.5C436.06 537.5 418.06 592.39 399.31 616.76C395.567 621.595 393.018 627.244 391.87 633.25C390.63 639.86 386.35 648.19 373.06 650.5L372.37 650.62C363.069 652.17 353.519 651.035 344.84 647.349C336.161 643.663 328.713 637.579 323.37 629.81C314.52 617.07 304.52 599.43 302.08 582.19C301.524 585.974 301.494 589.817 301.99 593.61C304.28 611.03 314.42 628.92 323.37 641.81C328.713 649.579 336.161 655.663 344.84 659.349C353.519 663.035 363.069 664.17 372.37 662.62L373.06 662.5C386.35 660.19 390.63 651.86 391.87 645.25C393.018 639.244 395.567 633.595 399.31 628.76C418.02 604.39 436.06 549.52 436.06 549.52L448.06 524.52C448.06 524.52 471.06 572.52 492.06 589.52C513.06 606.52 514.06 628.52 514.06 628.52C516.253 632.572 517.642 637.01 518.15 641.59V641.59Z" fill="black"/>
<path id="Vector_43" opacity="0.05" d="M257.56 512C257.56 512 300.56 511 297.56 497Z" fill="black"/>
<path id="Vector_44" d="M143.144 667.706C181.958 664.618 221.013 668.382 258.524 678.826C272.984 682.826 287.524 687.926 302.524 687.496C320.934 686.966 337.944 678.266 354.914 671.106C381.674 659.806 410.634 651.876 439.564 654.506C492.804 659.336 539.644 698.986 593.074 697.156C638.864 695.596 679.964 663.486 725.764 664.436C756.844 665.076 785.654 680.956 816.474 685.026C856.034 690.246 895.474 675.766 935.284 674.026C969.829 672.538 1004.12 680.585 1034.39 697.286C1056.29 709.416 1077.91 733.076 1069.29 756.576C1066.66 763.746 1061.34 770.126 1061.01 777.756C1059.5 783 1060.5 780.5 1058 788C1057 793.5 1052.5 799 1049.5 800.5C1046.5 803.5 1042.5 803 1030 807C1008.5 811.5 988.5 809 969 809C931.842 794.818 887.564 817.389 848 813.316C820.64 810.506 793.02 808.196 766 813.316C745.77 817.136 710.7 809.576 690.5 813.316C589.44 831.986 507.844 812.916 405.114 813.316C376.244 813.436 347.644 818.256 318.974 821.676C230.104 832.266 140.244 829.316 50.7836 826.356C41.7336 826.056 31.9436 825.486 24.9836 819.686C11.9836 808.826 16.9836 787.776 24.9836 772.856C38.1036 748.526 55.9836 727.556 69.3636 703.566C83.8836 677.686 115.384 669.916 143.144 667.706Z" fill="#4285F4"/>
<g id="s_LGrass">
<path id="Vector_45" d="M824.368 476.559C824.368 476.559 756.681 517.263 881.222 580.259C881.222 580.259 908.754 529.298 878.453 487.685C872.57 479.576 863.919 473.905 854.136 471.746C844.353 469.587 834.118 471.09 825.369 475.97L824.368 476.559Z" fill="#4285F4"/>
<path id="Vector_46" d="M825.13 475.7C825.13 475.7 882.947 520.061 881.222 580.259" stroke="#535461" stroke-miterlimit="10"/>
<path id="Vector_47" d="M877.513 579.994C877.513 579.994 856.424 507.964 881.689 455.09C892.417 432.958 895.677 407.944 890.979 383.803C888.661 372.361 885.299 361.156 880.936 350.328" stroke="#535461" stroke-width="2" stroke-miterlimit="10"/>
<path id="Vector_48" d="M896.593 316.89C896.581 325.71 880.545 351.258 880.545 351.258C880.545 351.258 864.581 325.665 864.593 316.845C864.452 314.66 864.76 312.468 865.5 310.407C866.24 308.345 867.395 306.457 868.894 304.86C870.393 303.263 872.203 301.991 874.214 301.122C876.225 300.254 878.392 299.807 880.583 299.81C882.773 299.813 884.939 300.266 886.947 301.14C888.955 302.015 890.763 303.292 892.257 304.893C893.751 306.494 894.901 308.385 895.635 310.449C896.369 312.513 896.671 314.705 896.523 316.89L896.593 316.89Z" fill="#4285F4"/>
<path id="Vector_49" d="M906.488 512.175C899.391 517.405 869.338 519.732 869.338 519.732C869.338 519.732 880.437 491.748 887.535 486.468C890.954 484.262 895.086 483.442 899.089 484.175C903.091 484.908 906.664 487.139 909.081 490.413C911.497 493.687 912.575 497.759 912.095 501.8C911.615 505.841 909.614 509.547 906.498 512.165L906.488 512.175Z" fill="#4285F4"/>
<path id="Vector_50" d="M857.294 387.575C863.605 393.724 893.066 400.136 893.066 400.136C893.066 400.136 885.887 370.855 879.576 364.706C878.112 363.077 876.329 361.765 874.337 360.852C872.346 359.94 870.188 359.446 867.997 359.402C865.807 359.357 863.631 359.763 861.604 360.594C859.577 361.425 857.742 362.663 856.213 364.233C854.684 365.802 853.494 367.668 852.716 369.716C851.938 371.764 851.589 373.95 851.69 376.138C851.791 378.327 852.341 380.471 853.305 382.438C854.269 384.406 855.627 386.154 857.294 387.575V387.575Z" fill="#4285F4"/>
<path id="Vector_51" d="M840.47 461.402C848.334 465.413 878.358 462.685 878.358 462.685C878.358 462.685 862.754 436.893 854.88 432.912C852.995 431.797 850.902 431.081 848.73 430.808C846.558 430.535 844.352 430.711 842.251 431.324C840.149 431.938 838.195 432.976 836.511 434.375C834.827 435.774 833.448 437.504 832.459 439.458C831.47 441.411 830.893 443.547 830.763 445.732C830.633 447.918 830.953 450.107 831.703 452.164C832.453 454.221 833.617 456.102 835.123 457.691C836.629 459.28 838.446 460.543 840.46 461.401L840.47 461.402Z" fill="#4285F4"/>
<path id="Vector_52" opacity="0.25" d="M896.593 316.89C896.581 325.71 880.545 351.258 880.545 351.258C880.545 351.258 864.581 325.665 864.593 316.845C864.452 314.66 864.76 312.468 865.5 310.407C866.24 308.345 867.395 306.457 868.894 304.86C870.393 303.263 872.203 301.991 874.214 301.122C876.225 300.254 878.392 299.807 880.583 299.81C882.773 299.813 884.939 300.266 886.947 301.14C888.955 302.015 890.763 303.292 892.257 304.893C893.751 306.494 894.901 308.385 895.635 310.449C896.369 312.513 896.671 314.705 896.523 316.89L896.593 316.89Z" fill="black"/>
<path id="Vector_53" opacity="0.25" d="M906.488 512.175C899.391 517.405 869.338 519.732 869.338 519.732C869.338 519.732 880.437 491.748 887.535 486.468C890.954 484.262 895.086 483.442 899.089 484.175C903.091 484.908 906.664 487.139 909.081 490.413C911.497 493.687 912.575 497.759 912.095 501.8C911.615 505.841 909.614 509.547 906.498 512.165L906.488 512.175Z" fill="black"/>
<path id="Vector_54" opacity="0.25" d="M857.294 387.575C863.605 393.724 893.066 400.136 893.066 400.136C893.066 400.136 885.887 370.855 879.576 364.706C878.112 363.077 876.329 361.765 874.337 360.852C872.346 359.94 870.188 359.446 867.997 359.402C865.807 359.357 863.631 359.763 861.604 360.594C859.577 361.425 857.742 362.663 856.213 364.233C854.684 365.802 853.494 367.668 852.716 369.716C851.938 371.764 851.589 373.95 851.69 376.138C851.791 378.327 852.341 380.471 853.305 382.438C854.269 384.406 855.627 386.154 857.294 387.575V387.575Z" fill="black"/>
<path id="Vector_55" opacity="0.25" d="M840.47 461.402C848.334 465.413 878.358 462.685 878.358 462.685C878.358 462.685 862.754 436.893 854.88 432.912C852.995 431.797 850.902 431.081 848.73 430.808C846.558 430.535 844.352 430.711 842.251 431.324C840.149 431.938 838.195 432.976 836.511 434.375C834.827 435.774 833.448 437.504 832.459 439.458C831.47 441.411 830.893 443.547 830.763 445.732C830.633 447.918 830.953 450.107 831.703 452.164C832.453 454.221 833.617 456.102 835.123 457.691C836.629 459.28 838.446 460.543 840.46 461.401L840.47 461.402Z" fill="black"/>
<path id="Vector_56" opacity="0.25" d="M833.966 535.402C841.048 540.652 871.095 543.065 871.095 543.065C871.095 543.065 860.074 515.049 852.992 509.749C851.322 508.338 849.381 507.285 847.288 506.653C845.195 506.022 842.996 505.826 840.824 506.077C838.653 506.329 836.556 507.023 834.663 508.116C832.77 509.209 831.121 510.679 829.819 512.434C828.516 514.189 827.586 516.193 827.088 518.321C826.589 520.449 826.532 522.657 826.919 524.808C827.307 526.96 828.131 529.009 829.341 530.829C830.552 532.649 832.122 534.202 833.956 535.392L833.966 535.402Z" fill="black"/>
<path id="Vector_57" opacity="0.25" d="M921.667 449.236C913.791 453.225 883.775 450.412 883.775 450.412C883.775 450.412 899.442 424.665 907.327 420.706C911.068 419.123 915.271 419.023 919.084 420.425C922.896 421.827 926.032 424.627 927.856 428.256C929.681 431.886 930.056 436.073 928.907 439.969C927.757 443.865 925.169 447.178 921.667 449.236V449.236Z" fill="black"/>
<path id="Vector_58" opacity="0.25" d="M922.935 365.768C918.134 373.161 890.816 385.912 890.816 385.912C890.816 385.912 891.359 355.773 896.159 348.38C898.591 345.126 902.169 342.919 906.168 342.206C910.167 341.493 914.287 342.327 917.694 344.541C921.1 346.754 923.537 350.18 924.51 354.124C925.483 358.067 924.92 362.234 922.935 365.778L922.935 365.768Z" fill="black"/>
<path id="Vector_59" d="M922.83 365.69C918.04 373.09 890.74 385.88 890.74 385.88C890.74 385.88 891.24 355.74 896.03 348.34C898.457 345.083 902.032 342.87 906.03 342.152C910.028 341.433 914.15 342.262 917.559 344.47C920.968 346.679 923.41 350.101 924.389 354.044C925.368 357.986 924.81 362.153 922.83 365.7L922.83 365.69Z" fill="#4285F4"/>
<path id="Vector_60" d="M834.1 535.45C841.19 540.69 871.24 543.06 871.24 543.06C871.24 543.06 860.18 515.06 853.09 509.77C851.418 508.362 849.476 507.311 847.382 506.682C845.288 506.053 843.088 505.861 840.917 506.115C838.746 506.37 836.65 507.067 834.759 508.163C832.868 509.259 831.221 510.73 829.921 512.487C828.62 514.244 827.694 516.249 827.198 518.378C826.702 520.507 826.648 522.715 827.039 524.866C827.429 527.017 828.257 529.064 829.469 530.883C830.682 532.702 832.255 534.253 834.09 535.44L834.1 535.45Z" fill="#4285F4"/>
<path id="Vector_61" d="M921.68 449.16C913.81 453.16 883.79 450.39 883.79 450.39C883.79 450.39 899.42 424.62 907.3 420.65C911.039 419.062 915.242 418.956 919.056 420.353C922.87 421.75 926.01 424.545 927.84 428.172C929.669 431.798 930.05 435.985 928.906 439.883C927.763 443.78 925.179 447.097 921.68 449.16Z" fill="#4285F4"/>
</g>
<g id="s_RGrass">
<path id="Vector_62" d="M938.75 604.35C938.75 604.35 917.56 532.35 942.75 479.44C953.448 457.294 956.672 432.275 951.94 408.14C949.606 396.702 946.228 385.502 941.85 374.68" stroke="#535461" stroke-width="2" stroke-miterlimit="10"/>
<path id="Vector_63" d="M957.48 341.22C957.48 350.04 941.48 375.61 941.48 375.61C941.48 375.61 925.48 350.04 925.48 341.22C925.748 337.169 927.547 333.371 930.512 330.596C933.476 327.821 937.385 326.278 941.445 326.278C945.505 326.278 949.414 327.821 952.378 330.596C955.343 333.371 957.142 337.169 957.41 341.22H957.48Z" fill="#4285F4"/>
<path id="Vector_64" d="M983.87 390.06C979.08 397.46 951.78 410.25 951.78 410.25C951.78 410.25 952.28 380.11 957.07 372.71C958.137 370.798 959.586 369.126 961.326 367.797C963.065 366.468 965.059 365.51 967.184 364.982C969.309 364.455 971.52 364.369 973.679 364.73C975.838 365.091 977.901 365.892 979.738 367.082C981.576 368.272 983.15 369.827 984.362 371.65C985.574 373.473 986.4 375.525 986.787 377.68C987.174 379.835 987.115 382.047 986.614 384.178C986.112 386.309 985.178 388.314 983.87 390.07V390.06Z" fill="#4285F4"/>
<path id="Vector_65" d="M982.72 473.52C974.85 477.52 944.83 474.75 944.83 474.75C944.83 474.75 960.47 448.98 968.35 445.01C970.236 443.893 972.332 443.176 974.508 442.903C976.683 442.63 978.891 442.806 980.995 443.422C983.099 444.038 985.054 445.079 986.739 446.482C988.424 447.885 989.802 449.619 990.789 451.577C991.776 453.534 992.35 455.674 992.475 457.862C992.6 460.051 992.275 462.242 991.518 464.3C990.762 466.358 989.59 468.238 988.077 469.824C986.563 471.41 984.74 472.668 982.72 473.52Z" fill="#4285F4"/>
<path id="Vector_66" d="M967.62 536.52C960.53 541.76 930.48 544.13 930.48 544.13C930.48 544.13 941.54 516.13 948.63 510.84C952.047 508.63 956.177 507.804 960.181 508.531C964.184 509.259 967.761 511.484 970.182 514.755C972.602 518.026 973.686 522.096 973.212 526.137C972.738 530.179 970.742 533.888 967.63 536.51L967.62 536.52Z" fill="#4285F4"/>
<path id="Vector_67" d="M918.25 411.96C924.57 418.1 954.04 424.47 954.04 424.47C954.04 424.47 946.82 395.2 940.5 389.06C939.034 387.432 937.249 386.123 935.256 385.213C933.263 384.304 931.104 383.813 928.914 383.771C926.724 383.73 924.548 384.139 922.522 384.973C920.496 385.807 918.663 387.048 917.137 388.619C915.61 390.19 914.422 392.058 913.647 394.107C912.872 396.156 912.526 398.343 912.63 400.531C912.735 402.719 913.287 404.863 914.254 406.829C915.221 408.795 916.581 410.541 918.25 411.96Z" fill="#4285F4"/>
<path id="Vector_68" d="M901.54 485.81C909.41 489.81 939.43 487.04 939.43 487.04C939.43 487.04 923.79 461.27 915.91 457.3C912.171 455.712 907.968 455.606 904.154 457.003C900.34 458.4 897.2 461.195 895.37 464.822C893.541 468.448 893.16 472.635 894.303 476.533C895.447 480.43 898.031 483.747 901.53 485.81H901.54Z" fill="#4285F4"/>
<path id="Vector_69" d="M895.14 559.82C902.23 565.06 932.28 567.43 932.28 567.43C932.28 567.43 921.22 539.43 914.13 534.14C912.458 532.732 910.516 531.681 908.422 531.052C906.329 530.424 904.128 530.231 901.957 530.485C899.786 530.74 897.69 531.437 895.799 532.533C893.908 533.629 892.261 535.1 890.961 536.857C889.66 538.614 888.734 540.619 888.238 542.748C887.742 544.877 887.688 547.085 888.079 549.236C888.469 551.387 889.297 553.435 890.509 555.253C891.722 557.072 893.295 558.623 895.13 559.81L895.14 559.82Z" fill="#4285F4"/>
</g>
</g>
</g>
<defs>
<linearGradient id="paint0_linear" x1="333.07" y1="186.24" x2="333.07" y2="184.21" gradientUnits="userSpaceOnUse">
<stop stop-color="#808080" stop-opacity="0.25"/>
<stop offset="0.54" stop-color="#808080" stop-opacity="0.12"/>
<stop offset="1" stop-color="#808080" stop-opacity="0.1"/>
</linearGradient>
<linearGradient id="paint1_linear" x1="518.201" y1="568.62" x2="518.201" y2="564.54" gradientUnits="userSpaceOnUse">
<stop stop-color="#808080" stop-opacity="0.25"/>
<stop offset="0.54" stop-color="#808080" stop-opacity="0.12"/>
<stop offset="1" stop-color="#808080" stop-opacity="0.1"/>
</linearGradient>
<linearGradient id="paint2_linear" x1="350398" y1="395987" x2="350398" y2="94860.7" gradientUnits="userSpaceOnUse">
<stop stop-color="#808080" stop-opacity="0.25"/>
<stop offset="0.54" stop-color="#808080" stop-opacity="0.12"/>
<stop offset="1" stop-color="#808080" stop-opacity="0.1"/>
</linearGradient>
<linearGradient id="paint3_linear" x1="13612.3" y1="24079" x2="13612.3" y2="21521.3" gradientUnits="userSpaceOnUse">
<stop stop-color="#808080" stop-opacity="0.25"/>
<stop offset="0.54" stop-color="#808080" stop-opacity="0.12"/>
<stop offset="1" stop-color="#808080" stop-opacity="0.1"/>
</linearGradient>
<clipPath id="clip0">
<rect width="1118.83" height="885.03" fill="white"/>
</clipPath>
</defs>
</svg>
