<svg height="512" viewBox="0 0 512 512" width="512" xmlns="http://www.w3.org/2000/svg"><g id="Snowflake"><g id="Flat"><path d="m256 512a8 8 0 0 1 -6.656-3.562l-32-48a8 8 0 0 1 -1.073-6.5l32-120a8 8 0 0 1 15.458 0l32 120a8 8 0 0 1 -1.073 6.5l-32 48a8 8 0 0 1 -6.656 3.562z" fill="#b2ebf2"/><path d="m256 184a8 8 0 0 1 -7.729-5.938l-32-120a7.993 7.993 0 0 1 1.073-6.5l32-48a8 8 0 0 1 13.312 0l32 48a7.993 7.993 0 0 1 1.073 6.5l-32 120a8 8 0 0 1 -7.729 5.938z" fill="#b2ebf2"/><path d="m56 296a8 8 0 0 1 -4.437-1.344l-48-32a8 8 0 0 1 0-13.312l48-32a8 8 0 0 1 6.5-1.074l120 32a8 8 0 0 1 0 15.46l-120 32a8.009 8.009 0 0 1 -2.063.27z" fill="#b2ebf2"/><path d="m456 296a8.014 8.014 0 0 1 -2.062-.27l-120-32a8 8 0 0 1 0-15.46l120-32a8 8 0 0 1 6.5 1.074l48 32a8 8 0 0 1 0 13.312l-48 32a8 8 0 0 1 -4.438 1.344z" fill="#b2ebf2"/><path d="m231.66 115.77 16.611 62.292a8 8 0 0 0 15.458 0l26.341-98.779a119.994 119.994 0 0 1 -58.41 36.487z" fill="#80deea"/><path d="m508.438 249.344-48-32a7.866 7.866 0 0 0 -.976-.545 120.218 120.218 0 0 1 -49.233 67.275l43.709 11.656a8 8 0 0 0 6.5-1.074l48-32a8 8 0 0 0 0-13.312z" fill="#80deea"/><path d="m178.062 248.27-77.272-20.606a120.075 120.075 0 0 1 -44.782 68.336 8.036 8.036 0 0 0 2.054-.27l120-32a8 8 0 0 0 0-15.46z" fill="#80deea"/><path d="m280.989 398.662a120.211 120.211 0 0 1 -61.73 44.07l-2.988 11.206a8 8 0 0 0 1.073 6.5l32 48a8 8 0 0 0 13.312 0l32-48a8 8 0 0 0 1.073-6.5z" fill="#80deea"/><path d="m335.892 326.544-7.846-47.084a8 8 0 0 0 -5.046-6.16l-44.334-16.85 42.559-15.486a8 8 0 0 0 5.12-6.006l9.514-49.443a8 8 0 0 0 -9.293-9.382l-48.791 8.917a8 8 0 0 0 -6.062 5.089l-15.993 43.136-15.993-43.136a8 8 0 0 0 -6.063-5.089l-48.79-8.917a8 8 0 0 0 -9.294 9.382l9.515 49.443a8 8 0 0 0 5.12 6.006l42.558 15.486-44.337 16.85a8 8 0 0 0 -5.05 6.163l-7.846 47.084a8 8 0 0 0 9.055 9.23l47.674-7.006a8 8 0 0 0 6.312-5.066l17.135-44.955 17.135 44.95a8 8 0 0 0 6.312 5.066l47.674 7.006a8 8 0 0 0 9.055-9.23z" fill="#b2ebf2"/><path d="m126.188 168a8 8 0 0 1 -5.65-2.335l-46.316-46.188a8 8 0 0 1 -2.351-5.7l.129-33.936a8 8 0 0 1 8-7.969h33.813a8 8 0 0 1 5.672 2.358l46.059 46.316a8 8 0 0 1 2.327 5.642v33.684a8 8 0 0 1 -7.97 8l-33.683.128z" fill="#b2ebf2"/><path d="m385.685 168h-.031l-33.684-.128a8 8 0 0 1 -7.97-8v-33.684a8 8 0 0 1 2.327-5.642l46.059-46.316a8 8 0 0 1 5.673-2.358h33.812a8 8 0 0 1 8 7.969l.129 33.941a8 8 0 0 1 -2.351 5.7l-46.315 46.188a8 8 0 0 1 -5.649 2.33z" fill="#b2ebf2"/><path d="m113.813 440.128h-33.813a8 8 0 0 1 -8-7.969l-.129-33.941a8 8 0 0 1 2.351-5.695l46.316-46.188a8 8 0 0 1 5.65-2.335h33.683a8 8 0 0 1 8 8v33.813a8 8 0 0 1 -2.327 5.641l-46.059 46.316a8 8 0 0 1 -5.672 2.358z" fill="#b2ebf2"/><path d="m431.871 440.128h-33.812a8 8 0 0 1 -5.673-2.358l-46.059-46.316a8 8 0 0 1 -2.327-5.641v-33.685a8 8 0 0 1 7.97-8l33.684-.128h.031a8 8 0 0 1 5.649 2.335l46.315 46.188a8 8 0 0 1 2.351 5.695l-.129 33.941a8 8 0 0 1 -8 7.969z" fill="#b2ebf2"/><g fill="#80deea"><path d="m216.006 160a8 8 0 0 1 -7.161-4.424l-32-64a8 8 0 0 1 14.31-7.156l32 64a8 8 0 0 1 -7.149 11.58z"/><circle cx="168" cy="56" r="8"/><path d="m295.994 160a8 8 0 0 1 -7.149-11.58l32-64a8 8 0 1 1 14.31 7.156l-32 64a8 8 0 0 1 -7.161 4.424z"/><circle cx="344" cy="56" r="8"/><path d="m183.994 432a8 8 0 0 1 -7.149-11.58l32-64a8 8 0 0 1 14.31 7.156l-32 64a8 8 0 0 1 -7.161 4.424z"/><circle cx="168" cy="456" r="8"/><path d="m328.006 432a8 8 0 0 1 -7.161-4.424l-32-64a8 8 0 0 1 14.31-7.156l32 64a8 8 0 0 1 -7.149 11.58z"/><circle cx="344" cy="456" r="8"/><path d="m152 216a7.988 7.988 0 0 1 -2.531-.413l-67.881-22.625a8 8 0 1 1 5.06-15.179l67.882 22.628a8 8 0 0 1 -2.53 15.589z"/><circle cx="50.177" cy="174.059" r="8"/><path d="m427.883 334.629a7.982 7.982 0 0 1 -2.531-.412l-67.882-22.628a8 8 0 1 1 5.06-15.178l67.882 22.627a8 8 0 0 1 -2.529 15.591z"/><circle cx="461.823" cy="337.941" r="8"/><path d="m360 216a8 8 0 0 1 -2.529-15.591l67.882-22.628a8 8 0 1 1 5.06 15.179l-67.883 22.629a7.992 7.992 0 0 1 -2.53.411z"/><circle cx="461.823" cy="174.059" r="8"/><path d="m84.117 334.629a8 8 0 0 1 -2.529-15.591l67.882-22.627a8 8 0 1 1 5.06 15.178l-67.882 22.628a7.986 7.986 0 0 1 -2.531.412z"/><circle cx="50.177" cy="337.941" r="8"/></g><path d="m256 64a8 8 0 0 1 -8-8v-48a8 8 0 0 1 16 0v48a8 8 0 0 1 -8 8z" fill="#4dd0e1"/><path d="m256 512a8 8 0 0 1 -8-8v-48a8 8 0 0 1 16 0v48a8 8 0 0 1 -8 8z" fill="#4dd0e1"/><path d="m56 264h-48a8 8 0 0 1 0-16h48a8 8 0 0 1 0 16z" fill="#4dd0e1"/><path d="m504 264h-48a8 8 0 0 1 0-16h48a8 8 0 0 1 0 16z" fill="#4dd0e1"/><circle cx="100" cy="100" fill="#e0f7fa" r="12"/><circle cx="404" cy="100" fill="#e0f7fa" r="12"/><circle cx="212" cy="212" fill="#e0f7fa" r="12"/><circle cx="364" cy="372" fill="#e0f7fa" r="12"/><path d="m194 308a106.856 106.856 0 0 1 -15.189-1.088l-3.271 19.632a8 8 0 0 0 9.055 9.23l47.674-7.006a8 8 0 0 0 6.312-5.066l12.287-32.236a105.5 105.5 0 0 1 -56.868 16.534z" fill="#80deea"/><path d="m300 202a105.511 105.511 0 0 1 -13.364 51.546l34.585-12.585a8 8 0 0 0 5.12-6.006l9.514-49.443a8 8 0 0 0 -9.293-9.382l-28.578 5.223a106.556 106.556 0 0 1 2.016 20.647z" fill="#80deea"/><path d="m335.892 326.544-7.846-47.084a8 8 0 0 0 -5.046-6.16l-39.23-14.91a106.56 106.56 0 0 1 -25.251 27.71l14.332 37.6a8 8 0 0 0 6.312 5.066l47.674 7.006a8 8 0 0 0 9.055-9.23z" fill="#80deea"/><path d="m165.544 120.546-18.621-18.724a66.071 66.071 0 0 1 -40.7 49.569l14.313 14.274a8 8 0 0 0 5.65 2.335h.03l33.683-.128a8 8 0 0 0 7.97-8v-33.684a8 8 0 0 0 -2.325-5.642z" fill="#80deea"/><path d="m394 132a65.725 65.725 0 0 1 -43.107-16.045l-4.566 4.591a8 8 0 0 0 -2.327 5.642v33.684a8 8 0 0 0 7.97 8l33.684.128h.031a8 8 0 0 0 5.649-2.335l46.315-46.188a8 8 0 0 0 2.351-5.7v-.473a65.769 65.769 0 0 1 -46 18.696z" fill="#80deea"/><path d="m437.649 392.523-15.649-15.606a65.941 65.941 0 0 1 -56 31.083c-1.107 0-2.208-.03-3.3-.083l29.687 29.853a8 8 0 0 0 5.673 2.358h33.812a8 8 0 0 0 8-7.969l.128-33.941a8 8 0 0 0 -2.351-5.695z" fill="#80deea"/><path d="m86 412a98.748 98.748 0 0 1 -14.08-1.011l.08 21.17a8 8 0 0 0 8 7.969h33.813a8 8 0 0 0 5.672-2.358l46.059-46.316a8 8 0 0 0 2.327-5.641v-17.944a97.905 97.905 0 0 1 -81.871 44.131z" fill="#80deea"/></g></g></svg>