<svg height="512" viewBox="0 0 512 512" width="512" xmlns="http://www.w3.org/2000/svg"><g id="Snowflake-4" data-name="Snowflake"><g id="Flat"><path d="m256 208a8 8 0 0 1 -8-8v-40a8 8 0 0 1 16 0v40a8 8 0 0 1 -8 8z" fill="#80deea"/><path d="m256 112a8 8 0 0 1 -8-8v-48a8 8 0 0 1 16 0v48a8 8 0 0 1 -8 8z" fill="#80deea"/><path d="m256 360a8 8 0 0 1 -8-8v-40a8 8 0 0 1 16 0v40a8 8 0 0 1 -8 8z" fill="#80deea"/><path d="m256 464a8 8 0 0 1 -8-8v-48a8 8 0 0 1 16 0v48a8 8 0 0 1 -8 8z" fill="#80deea"/><path d="m200 264h-40a8 8 0 0 1 0-16h40a8 8 0 0 1 0 16z" fill="#80deea"/><path d="m104 264h-48a8 8 0 0 1 0-16h48a8 8 0 0 1 0 16z" fill="#80deea"/><path d="m352 264h-40a8 8 0 0 1 0-16h40a8 8 0 0 1 0 16z" fill="#80deea"/><path d="m456 264h-48a8 8 0 0 1 0-16h48a8 8 0 0 1 0 16z" fill="#80deea"/><path d="m440 448a7.976 7.976 0 0 1 -5.657-2.343l-368-368a8 8 0 0 1 11.314-11.314l368 368a8 8 0 0 1 -5.657 13.657z" fill="#80deea"/><path d="m72 448a8 8 0 0 1 -5.657-13.657l368-368a8 8 0 0 1 11.314 11.314l-368 368a7.976 7.976 0 0 1 -5.657 2.343z" fill="#80deea"/><path d="m256 168a7.976 7.976 0 0 1 -5.657-2.343l-32-32a8 8 0 0 1 -2.343-5.657v-56a8 8 0 0 1 13.657-5.657l26.343 26.344 26.343-26.344a8 8 0 0 1 13.657 5.657v56a8 8 0 0 1 -2.343 5.657l-32 32a7.976 7.976 0 0 1 -5.657 2.343z" fill="#b2ebf2"/><path d="m288 448a8 8 0 0 1 -5.659-2.343l-26.341-26.344-26.343 26.344a8 8 0 0 1 -13.657-5.657v-56a8 8 0 0 1 2.343-5.657l32-32a8 8 0 0 1 11.314 0l32 32a8 8 0 0 1 2.343 5.657v56a8 8 0 0 1 -8 8z" fill="#b2ebf2"/><circle cx="56" cy="48" fill="#80deea" r="8"/><circle cx="464" cy="464" fill="#80deea" r="8"/><circle cx="8" cy="256" fill="#80deea" r="8"/><circle cx="504" cy="256" fill="#80deea" r="8"/><circle cx="56" cy="464" fill="#80deea" r="8"/><circle cx="464" cy="48" fill="#80deea" r="8"/><circle cx="256" cy="8" fill="#80deea" r="8"/><circle cx="256" cy="504" fill="#80deea" r="8"/><g fill="#b2ebf2"><path d="m128 296h-56a8 8 0 0 1 -5.657-13.657l26.344-26.343-26.344-26.343a8 8 0 0 1 5.657-13.657h56a8 8 0 0 1 5.657 2.343l32 32a8 8 0 0 1 0 11.314l-32 32a8 8 0 0 1 -5.657 2.343z"/><path d="m440 296h-56a8 8 0 0 1 -5.657-2.343l-32-32a8 8 0 0 1 0-11.314l32-32a8 8 0 0 1 5.657-2.343h56a8 8 0 0 1 5.657 13.657l-26.344 26.343 26.344 26.343a8 8 0 0 1 -5.657 13.657z"/><path d="m168 176h-80a8 8 0 0 1 0-16h72v-72a8 8 0 0 1 16 0v80a8 8 0 0 1 -8 8z"/><path d="m136 144h-64a8 8 0 0 1 0-16h56v-56a8 8 0 0 1 16 0v64a8 8 0 0 1 -8 8z"/><path d="m104 112h-48a8 8 0 0 1 0-16h40v-40a8 8 0 0 1 16 0v48a8 8 0 0 1 -8 8z"/><path d="m168 432a8 8 0 0 1 -8-8v-72h-72a8 8 0 0 1 0-16h80a8 8 0 0 1 8 8v80a8 8 0 0 1 -8 8z"/><path d="m136 448a8 8 0 0 1 -8-8v-56h-56a8 8 0 0 1 0-16h64a8 8 0 0 1 8 8v64a8 8 0 0 1 -8 8z"/><path d="m104 464a8 8 0 0 1 -8-8v-40h-40a8 8 0 0 1 0-16h48a8 8 0 0 1 8 8v48a8 8 0 0 1 -8 8z"/><path d="m344 432a8 8 0 0 1 -8-8v-80a8 8 0 0 1 8-8h80a8 8 0 0 1 0 16h-72v72a8 8 0 0 1 -8 8z"/><path d="m376 448a8 8 0 0 1 -8-8v-64a8 8 0 0 1 8-8h64a8 8 0 0 1 0 16h-56v56a8 8 0 0 1 -8 8z"/><path d="m408 464a8 8 0 0 1 -8-8v-48a8 8 0 0 1 8-8h48a8 8 0 0 1 0 16h-40v40a8 8 0 0 1 -8 8z"/><path d="m424 176h-80a8 8 0 0 1 -8-8v-80a8 8 0 0 1 16 0v72h72a8 8 0 0 1 0 16z"/><path d="m440 144h-64a8 8 0 0 1 -8-8v-64a8 8 0 0 1 16 0v56h56a8 8 0 0 1 0 16z"/><path d="m456 112h-48a8 8 0 0 1 -8-8v-48a8 8 0 0 1 16 0v40h40a8 8 0 0 1 0 16z"/></g><circle cx="256" cy="256" fill="#e0f7fa" r="64"/><path d="m310.223 222.062a92.065 92.065 0 0 1 -105.073 72.738 63.963 63.963 0 0 0 105.073-72.739z" fill="#b2ebf2"/><circle cx="256" cy="256" fill="#80deea" r="32"/><path d="m32 288.5a8 8 0 0 1 -5.657-13.657l18.844-18.843-18.844-18.843a8 8 0 0 1 11.314-11.314l24.5 24.5a8 8 0 0 1 0 11.314l-24.5 24.5a7.976 7.976 0 0 1 -5.657 2.343z" fill="#b2ebf2"/><path d="m480 288.5a7.976 7.976 0 0 1 -5.657-2.343l-24.5-24.5a8 8 0 0 1 0-11.314l24.5-24.5a8 8 0 0 1 11.314 11.314l-18.844 18.843 18.844 18.843a8 8 0 0 1 -5.657 13.657z" fill="#b2ebf2"/><path d="m256 64.5a7.976 7.976 0 0 1 -5.657-2.343l-24.5-24.5a8 8 0 0 1 11.314-11.314l18.843 18.844 18.843-18.844a8 8 0 0 1 11.314 11.314l-24.5 24.5a7.976 7.976 0 0 1 -5.657 2.343z" fill="#b2ebf2"/><path d="m280.5 488a7.976 7.976 0 0 1 -5.657-2.343l-18.843-18.844-18.843 18.844a8 8 0 0 1 -11.314-11.314l24.5-24.5a8 8 0 0 1 11.314 0l24.5 24.5a8 8 0 0 1 -5.657 13.657z" fill="#b2ebf2"/><path d="m228 120a68.373 68.373 0 0 1 -12-1.077v9.077a8 8 0 0 0 2.343 5.657l32 32a8 8 0 0 0 11.314 0l32-32a8 8 0 0 0 2.343-5.657v-56a7.978 7.978 0 0 0 -1.7-4.9 68.012 68.012 0 0 1 -66.3 52.9z" fill="#80deea"/><circle cx="236" cy="100" fill="#fff" r="12"/><path d="m293.657 378.343-11.273-11.272a68.006 68.006 0 0 1 -62.384 40.929c-1.344 0-2.675-.05-4-.126v32.126a8 8 0 0 0 13.657 5.657l26.343-26.344 26.343 26.344a8 8 0 0 0 13.657-5.657v-56a8 8 0 0 0 -2.343-5.657z" fill="#80deea"/><path d="m165.657 250.343-32-32a8 8 0 0 0 -5.657-2.343h-8.4c.261 2.632.4 5.3.4 8a80 80 0 0 1 -45.1 72h53.1a8 8 0 0 0 5.657-2.343l32-32a8 8 0 0 0 0-11.314z" fill="#80deea"/><circle cx="108" cy="236" fill="#fff" r="12"/><path d="m419.313 256 26.344-26.343a8 8 0 0 0 -5.657-13.657h-32.4c.261 2.632.4 5.3.4 8a79.884 79.884 0 0 1 -33.93 65.384l4.273 4.273a8 8 0 0 0 5.657 2.343h56a8 8 0 0 0 5.657-13.657z" fill="#80deea"/></g></g></svg>