<svg height="512" viewBox="0 0 512 512" width="512" xmlns="http://www.w3.org/2000/svg"><g id="Snowflake-3" data-name="Snowflake"><g id="Flat"><path d="m424.627 318.061-74.066-31.427-74.039-30.634 74.105-30.662 74-31.4a8 8 0 0 0 -6.25-14.729l-73.934 31.372-74.06 30.643 30.943-74.63 29.91-74a8 8 0 0 0 -14.834-6l-29.882 73.939-30.92 74.577-30.9-74.51-29.91-74a8 8 0 1 0 -14.834 6l29.944 74.061 30.917 74.564-73.998-30.615-74-31.4a8 8 0 0 0 -6.25 14.729l74.066 31.427 74.039 30.634-74.105 30.662-74 31.4a8 8 0 1 0 6.25 14.729l73.933-31.372 74.058-30.642-30.85 74.4-30 74.224a8 8 0 1 0 14.834 6l29.973-74.158 30.833-74.359 30.8 74.293 30 74.224a8 8 0 1 0 14.834-6l-30.027-74.29-30.823-74.339 73.991 30.614 74 31.4a8 8 0 0 0 6.25-14.729z" fill="#4dd0e1"/><path d="m256 343.2a7.976 7.976 0 0 1 -5.657-2.343l-20.852-20.857h-29.491a8 8 0 0 1 -8-8v-29.491l-20.853-20.852a8 8 0 0 1 0-11.314l20.853-20.852v-29.491a8 8 0 0 1 8-8h29.49l20.853-20.853a8 8 0 0 1 11.314 0l20.853 20.853h29.49a8 8 0 0 1 8 8v29.49l20.854 20.853a8 8 0 0 1 0 11.314l-20.854 20.853v29.49a8 8 0 0 1 -8 8h-29.49l-20.853 20.853a7.976 7.976 0 0 1 -5.657 2.347z" fill="#b2ebf2"/><path d="m340.854 250.343-20.854-20.853v-29.49a7.954 7.954 0 0 0 -1.694-4.911 184.393 184.393 0 0 1 -126.142 118.528 8 8 0 0 0 7.836 6.383h29.491l20.852 20.853a8 8 0 0 0 11.314 0l20.853-20.853h29.49a8 8 0 0 0 8-8v-29.49l20.854-20.853a8 8 0 0 0 0-11.314z" fill="#80deea"/><g fill="#b2ebf2"><path d="m256 152a8 8 0 0 1 -7.519-5.266l-32-88a8 8 0 0 1 .863-7.171l32-48a8 8 0 0 1 13.312 0l32 48a8 8 0 0 1 .863 7.171l-32 88a8 8 0 0 1 -7.519 5.266z"/><path d="m256 512a8 8 0 0 1 -6.656-3.562l-32-48a8 8 0 0 1 -.863-7.172l32-88a8 8 0 0 1 15.038 0l32 88a8 8 0 0 1 -.863 7.172l-32 48a8 8 0 0 1 -6.656 3.562z"/><path d="m323.819 97.6a8 8 0 0 1 -7.878-6.607l-7.241-40.937a8 8 0 0 1 3.939-8.356l36.18-20.468a8 8 0 0 1 11.818 5.57l7.237 40.934a8 8 0 0 1 -3.939 8.356l-36.176 20.468a8.008 8.008 0 0 1 -3.94 1.04z"/><path d="m187.377 97.6a7.994 7.994 0 0 1 -3.939-1.037l-36.181-20.471a8 8 0 0 1 -3.939-8.356l7.237-40.936a8 8 0 0 1 11.817-5.57l36.181 20.47a8 8 0 0 1 3.939 8.355l-7.237 40.934a8 8 0 0 1 -7.878 6.608z"/><path d="m352.763 491.805a8 8 0 0 1 -3.94-1.037l-36.18-20.468a8 8 0 0 1 -3.939-8.356l7.237-40.934a8 8 0 0 1 11.818-5.57l36.18 20.468a8 8 0 0 1 3.939 8.356l-7.237 40.936a8 8 0 0 1 -7.878 6.607z"/><path d="m158.433 491.805a8 8 0 0 1 -7.878-6.607l-7.237-40.934a8 8 0 0 1 3.939-8.356l36.181-20.468a8 8 0 0 1 11.817 5.571l7.237 40.934a8 8 0 0 1 -3.939 8.355l-36.181 20.468a7.994 7.994 0 0 1 -3.939 1.037z"/><path d="m49.637 205.686a8 8 0 0 1 -6.555-3.415l-23.828-34.062a8 8 0 0 1 4.417-12.294l40.057-11.115a8 8 0 0 1 8.693 3.124l23.828 34.062a8 8 0 0 1 -4.417 12.295l-40.057 11.119a8.016 8.016 0 0 1 -2.138.286z"/><path d="m445.33 367.488a8 8 0 0 1 -6.556-3.415l-23.828-34.062a8 8 0 0 1 4.417-12.3l40.058-11.111a8 8 0 0 1 8.694 3.124l23.827 34.062a8 8 0 0 1 -4.417 12.294l-40.056 11.12a8.023 8.023 0 0 1 -2.139.288z"/><path d="m65.866 367.488a8.016 8.016 0 0 1 -2.138-.291l-40.057-11.112a8 8 0 0 1 -4.417-12.294l23.828-34.062a8 8 0 0 1 8.693-3.124l40.057 11.111a8 8 0 0 1 4.417 12.3l-23.828 34.057a8 8 0 0 1 -6.555 3.415z"/><path d="m461.56 205.686a8.023 8.023 0 0 1 -2.139-.291l-40.058-11.111a8 8 0 0 1 -4.417-12.295l23.828-34.062a8 8 0 0 1 8.695-3.124l40.056 11.112a8 8 0 0 1 4.417 12.294l-23.827 34.062a8 8 0 0 1 -6.555 3.415z"/><path d="m56 296a7.993 7.993 0 0 1 -4.437-1.344l-48-32a8 8 0 0 1 0-13.312l48-32a8 8 0 0 1 7.171-.863l88 32a8 8 0 0 1 0 15.038l-88 32a8.017 8.017 0 0 1 -2.734.481z"/><path d="m456 296a8.015 8.015 0 0 1 -2.733-.481l-88-32a8 8 0 0 1 0-15.038l88-32a8 8 0 0 1 7.171.863l48 32a8 8 0 0 1 0 13.312l-48 32a7.994 7.994 0 0 1 -4.438 1.344z"/><path d="m176.8 184.8a7.991 7.991 0 0 1 -3.381-.75l-84.853-39.6a8 8 0 0 1 -4.462-5.681l-11.311-56.562a8 8 0 0 1 9.414-9.414l56.568 11.313a8 8 0 0 1 5.681 4.462l39.6 84.853a8 8 0 0 1 -7.256 11.379z"/><path d="m431.362 439.362a7.957 7.957 0 0 1 -1.569-.155l-56.568-11.313a8 8 0 0 1 -5.68-4.462l-39.6-84.853a8 8 0 0 1 10.632-10.633l84.853 39.6a8 8 0 0 1 4.462 5.681l11.313 56.568a8 8 0 0 1 -7.845 9.569z"/><path d="m80.638 439.362a8 8 0 0 1 -7.845-9.569l11.313-56.568a8 8 0 0 1 4.462-5.681l84.853-39.6a8 8 0 0 1 10.633 10.633l-39.6 84.853a8 8 0 0 1 -5.681 4.462l-56.566 11.315a7.957 7.957 0 0 1 -1.569.155z"/><path d="m335.2 184.8a8 8 0 0 1 -7.251-11.383l39.6-84.853a8 8 0 0 1 5.68-4.462l56.568-11.313a8 8 0 0 1 9.414 9.414l-11.313 56.568a8 8 0 0 1 -4.462 5.681l-84.853 39.6a7.985 7.985 0 0 1 -3.383.748z"/><path d="m232.8 321.09a8 8 0 0 1 -7.39-11.06l8.29-20a7.971 7.971 0 0 1 7.39-4.94 8 8 0 0 1 7.39 11.06l-8.29 20a7.971 7.971 0 0 1 -7.39 4.94z"/><path d="m312 288.29a8 8 0 0 1 -3.061-.61l-20-8.29a8 8 0 0 1 3.061-15.39 7.883 7.883 0 0 1 3.06.61l20 8.28a8.005 8.005 0 0 1 -3.06 15.4z"/></g><path d="m220 249.09a7.883 7.883 0 0 1 -3.06-.61l-20-8.28a8 8 0 1 1 6.12-14.79l20 8.29a8 8 0 0 1 -3.06 15.39z" fill="#80deea"/><path d="m270.91 228a7.88 7.88 0 0 1 -3.06-.61 8 8 0 0 1 -4.33-10.45l8.28-20a8 8 0 0 1 7.4-4.94 7.883 7.883 0 0 1 3.06.61 8.02 8.02 0 0 1 4.33 10.45l-8.29 20a7.971 7.971 0 0 1 -7.39 4.94z" fill="#80deea"/><circle cx="256" cy="256" fill="#b2ebf2" r="8"/><circle cx="236" cy="212" fill="#e0f7fa" r="12"/><circle cx="252" cy="60" fill="#e0f7fa" r="12"/><circle cx="44" cy="252" fill="#e0f7fa" r="12"/><circle cx="364" cy="364" fill="#e0f7fa" r="12"/><circle cx="388" cy="108" fill="#e0f7fa" r="12"/><circle cx="404" cy="252" fill="#e0f7fa" r="12"/><path d="m198.553 41.7-14.59-8.254a48.015 48.015 0 0 1 -33.641 44.38l33.116 18.734a8 8 0 0 0 11.817-5.571l7.237-40.934a8 8 0 0 0 -3.939-8.355z" fill="#80deea"/><path d="m362.63 38.053a47.986 47.986 0 0 1 -42.63 25.947 48.147 48.147 0 0 1 -8.981-.852l4.922 27.842a8 8 0 0 0 11.818 5.57l36.18-20.468a8 8 0 0 0 3.939-8.356z" fill="#80deea"/><path d="m492.916 160.918a8 8 0 0 0 -5.391-5l-23.763-6.592a63.961 63.961 0 0 1 -29.9 48.981l25.563 7.091a8 8 0 0 0 8.694-3.124l23.827-34.062a8 8 0 0 0 .97-7.294z" fill="#80deea"/><path d="m491.942 343.791-17.281-24.7a63.872 63.872 0 0 1 -49.941 24.9l14.054 20.091a8 8 0 0 0 8.695 3.124l40.056-11.112a8 8 0 0 0 4.417-12.294z" fill="#80deea"/><path d="m363.939 435.908-20.494-11.594a64.005 64.005 0 0 1 -30.154 46.353l35.532 20.1a8 8 0 0 0 11.818-5.57l7.237-40.934a8 8 0 0 0 -3.939-8.355z" fill="#80deea"/><path d="m199.183 443.232a63.825 63.825 0 0 1 -47.183 20.768c-1.764 0-3.506-.091-5.233-.231l3.788 21.429a8 8 0 0 0 11.817 5.57l36.181-20.468a8 8 0 0 0 3.939-8.355z" fill="#80deea"/><path d="m97.223 322.72a8 8 0 0 0 -5.391-5l-29.292-8.129a64.1 64.1 0 0 1 -39.717 46.2 7.918 7.918 0 0 0 .848.291l40.057 11.118a8 8 0 0 0 8.693-3.124l23.828-34.062a8 8 0 0 0 .974-7.294z" fill="#80deea"/><path d="m96.249 181.989-18.774-26.838a63.956 63.956 0 0 1 -47.382 28.549l12.989 18.567a8 8 0 0 0 8.693 3.124l40.057-11.111a8 8 0 0 0 4.417-12.295z" fill="#80deea"/><path d="m184.054 173.421-39.6-84.853a8 8 0 0 0 -5.681-4.462l-11.253-2.25c.313 3.344.48 6.722.48 10.144a107.494 107.494 0 0 1 -19.422 61.794l64.843 30.26a8 8 0 0 0 10.633-10.633z" fill="#80deea"/><circle cx="100" cy="100" fill="#e0f7fa" r="12"/><path d="m286.771 39.734a108.382 108.382 0 0 1 -56.892 55.844l18.6 51.156a8 8 0 0 0 15.038 0l32-88a8 8 0 0 0 -.863-7.171z" fill="#80deea"/><path d="m356 144a109.1 109.1 0 0 1 -13.908-.889l-14.145 30.31a8 8 0 0 0 10.632 10.633l84.853-39.6a8 8 0 0 0 4.462-5.681l5.489-27.447a107.671 107.671 0 0 1 -77.383 32.674z" fill="#80deea"/><path d="m508.437 249.344-48-32c-.132-.089-.272-.16-.409-.24a108.234 108.234 0 0 1 -48.182 63.353l41.42 15.062a8 8 0 0 0 7.171-.863l48-32a8 8 0 0 0 0-13.312z" fill="#80deea"/><path d="m295.519 453.266-19.268-52.986a108.24 108.24 0 0 1 -54.091 67.381l27.184 40.777a8 8 0 0 0 13.312 0l32-48a8 8 0 0 0 .863-7.172z" fill="#80deea"/><path d="m108 395.5a108.158 108.158 0 0 1 -27.634-3.574l-7.573 37.867a8 8 0 0 0 9.414 9.414l56.568-11.313a8 8 0 0 0 5.681-4.462l20.654-44.259a107.489 107.489 0 0 1 -57.11 16.327z" fill="#80deea"/><path d="m146.734 248.481-58.128-21.137a108.374 108.374 0 0 1 -52.19 57.214l15.147 10.1a8 8 0 0 0 7.171.863l88-32a8 8 0 0 0 0-15.038z" fill="#80deea"/><path d="m427.894 373.225a8 8 0 0 0 -4.462-5.681l-4.332-2.021a107.767 107.767 0 0 1 -63.045 33.288l11.49 24.621a8 8 0 0 0 5.68 4.462l56.568 11.313a8 8 0 0 0 9.414-9.414z" fill="#80deea"/></g></g></svg>