<svg id="Capa_1" enable-background="new 0 0 512.004 512.004" height="512" viewBox="0 0 512.004 512.004" width="512" xmlns="http://www.w3.org/2000/svg"><g><g><circle cx="256.002" cy="144.334" fill="#f2fbff" r="85.813"/><path d="m341.812 144.331c0 47.394-38.416 85.82-85.811 85.82-20.471 0-39.261-7.168-54.006-19.129 7.437 2.098 15.281 3.221 23.394 3.221 47.394 0 85.81-38.426 85.81-85.82 0-26.923-12.398-50.953-31.805-66.682 36.022 10.191 62.418 43.308 62.418 82.59z" fill="#dff6fd"/><circle cx="256.002" cy="341.312" fill="#f2fbff" r="151.608"/><path d="m206.492 213.697v29.391c0 3.324 3.199 5.711 6.385 4.766l30.972-9.191c1.702 3.035 4.946 5.089 8.673 5.089h6.959c3.698 0 6.918-2.024 8.631-5.02l31.014 9.204c3.186.946 6.385-1.442 6.385-4.766v-29.473z" fill="#dff6fd"/><path d="m407.609 341.314c0 83.733-67.875 151.607-151.607 151.607-57.058 0-106.749-31.517-132.628-78.095 24.766 17.588 55.04 27.937 87.729 27.937 83.723 0 151.607-67.875 151.607-151.607 0-26.675-6.89-51.749-19-73.522 38.666 27.47 63.899 72.627 63.899 123.68z" fill="#dff6fd"/><g><path d="m425.559 504.504c-40.24-30.444-101.251-49.863-169.557-49.863s-129.318 19.419-169.558 49.863z" fill="#f2fbff"/><path d="m425.555 504.504h-61.234c-34.111-25.81-83.166-43.696-138.931-48.537 10.002-.875 20.222-1.322 30.612-1.322 68.302-.001 129.317 19.416 169.553 49.859z" fill="#c9f0fd"/></g><g><path d="m333.048 115.591c3.805 1.102 7.872-.194 10.419-3.229.831-.99 1.643-2.003 2.437-3.04 21.225-27.727 22.954-64.073 7.178-91.862-30.944-7.974-65.582 3.182-86.806 30.909-.991 1.294-1.938 2.608-2.844 3.938-1.995 2.933-2.252 6.714-.697 9.902 3.441 7.055 11.169 20.015 25.578 31.248 16.393 12.778 35.272 19.394 44.735 22.134z" fill="#fb6a3b"/><path d="m345.908 109.325c-.795 1.034-1.611 2.048-2.446 3.032-2.545 3.042-6.611 4.335-10.419 3.231-3.718-1.084-8.908-2.764-14.834-5.18.288-.358.577-.716.855-1.084 21.217-27.729 22.946-64.077 7.178-91.865-2.167-.557-4.355-1.024-6.552-1.392 11.085-1.849 22.469-1.422 33.396 1.392 15.769 27.789 14.039 64.137-7.178 91.866z" fill="#fb5532"/><g><circle cx="371.026" cy="24.932" fill="#fcb44d" r="17.427"/></g></g><g><g><g fill="#23f1a8"><path d="m249.504 192.206-36.627-10.869c-3.186-.946-6.385 1.442-6.385 4.766v37.575c0 3.324 3.199 5.711 6.385 4.766l36.627-10.869z"/><path d="m262.499 192.288 36.627-10.869c3.186-.946 6.385 1.442 6.385 4.766v37.575c0 3.324-3.199 5.711-6.385 4.766l-36.627-10.869z"/></g><path d="m259.481 224.341h-6.959c-5.491 0-9.942-4.451-9.942-9.942v-19.018c0-5.491 4.451-9.942 9.942-9.942h6.959c5.491 0 9.942 4.451 9.942 9.942v19.018c.001 5.491-4.451 9.942-9.942 9.942z" fill="#20b69f"/></g><g><circle cx="253.191" cy="268.519" fill="#fb5532" r="16.233"/></g><g><circle cx="253.191" cy="330.928" fill="#fb5532" r="16.233"/></g></g></g><g><path d="m485.831 497.004h-57.807c-19.388-14.251-43.019-25.86-69.226-34.273 35.454-30.091 56.312-74.627 56.312-121.419 0-37.99-13.613-73.782-36.885-101.781l39.125-18.788 27.524 12.946c1.032.485 2.118.715 3.188.715 2.815 0 5.514-1.594 6.792-4.31 1.763-3.748.153-8.216-3.595-9.979l-16.469-7.746 5.984-2.874c.005-.002.01-.004.014-.007l21.795-10.466c3.733-1.793 5.307-6.273 3.514-10.008-1.793-3.733-6.272-5.308-10.008-3.514l-14.389 6.91-3.206-8.758 5.794-12.358c1.758-3.751.143-8.216-3.607-9.975-3.75-1.758-8.217-.144-9.975 3.607l-7.119 15.187c-.849 1.811-.939 3.884-.252 5.762l4.78 13.059-13.998 6.722c-.004.002-.008.004-.013.006l-46.478 22.32c-10.898-10.765-23.398-20.015-37.21-27.336 12.242-16.152 18.9-35.842 18.9-56.312 0-8.245-1.084-16.386-3.202-24.269 1.126-.825 2.172-1.779 3.096-2.88.894-1.063 1.785-2.174 2.65-3.305 14.198-18.549 20.829-41.383 18.875-64.026.081.001.161.01.242.01 1.105 0 2.219-.073 3.333-.222 6.601-.877 12.465-4.271 16.512-9.559h.001c8.354-10.916 6.271-26.592-4.644-34.945-5.286-4.048-11.84-5.795-18.434-4.917-6.435.855-12.165 4.108-16.198 9.17-33.941-7.332-69.429 5.943-91.224 34.417-1.06 1.383-2.1 2.822-3.091 4.279-.635.933-1.167 1.918-1.601 2.937-51.282.202-92.941 41.98-92.941 93.309 0 20.472 6.659 40.164 18.905 56.318-13.607 7.209-26.102 16.378-37.119 27.217l-27.668-63.892 21.752-30.676c2.396-3.379 1.599-8.06-1.78-10.456-3.378-2.396-8.06-1.601-10.457 1.78l-16.489 23.253-12.213-28.202c-1.646-3.801-6.061-5.548-9.863-3.902-3.801 1.646-5.548 6.063-3.902 9.863l7.488 17.292-20.222-4.128-4.71-15.583 6.931-11.027c2.205-3.507 1.148-8.137-2.358-10.341-3.507-2.205-8.137-1.148-10.341 2.358l-5.239 8.335-6.917-3.198c-3.761-1.741-8.217-.1-9.955 3.66s-.1 8.217 3.66 9.955l9.847 4.553 6.019 19.911c.797 2.639 2.979 4.627 5.679 5.179l34.879 7.12 34.754 80.254c-.516.624-1.044 1.235-1.551 1.867-18.75 23.384-30.463 51.442-33.872 81.143-.472 4.115 2.481 7.834 6.596 8.307.291.033.579.05.864.05 3.759 0 7.003-2.821 7.442-6.646 3.086-26.889 13.692-52.294 30.671-73.471 14.838-18.504 33.884-32.991 55.469-42.295v14.746c0 3.974 1.827 7.616 5.011 9.994 2.194 1.638 4.781 2.486 7.424 2.486 1.193 0 2.398-.173 3.584-.524l26.372-7.826c3.024 2.516 6.907 4.033 11.139 4.033h6.959c4.198 0 8.054-1.492 11.068-3.972l26.444 7.847c1.186.352 2.39.524 3.583.524 2.643 0 5.229-.849 7.424-2.487 3.186-2.377 5.012-6.02 5.012-9.993v-14.815c14.961 6.449 28.472 15.29 40.145 25.984l-20.066 9.636c-3.733 1.793-5.307 6.273-3.514 10.008 1.29 2.687 3.972 4.255 6.766 4.255 1.089 0 2.194-.238 3.242-.741l24.652-11.838c22.576 25.762 35.875 59.336 35.875 95.063 0 45.803-22.061 89.229-59.042 116.325-21.956-5.619-45.327-9.101-69.246-10.139-4.116-.204-7.639 3.029-7.818 7.168-.18 4.138 3.029 7.639 7.168 7.818 48.24 2.094 93.989 14.451 129.29 34.521h-288.914c34.816-19.785 79.854-32.104 127.326-34.434 4.137-.203 7.326-3.722 7.124-7.859-.204-4.138-3.727-7.309-7.859-7.123-23.502 1.154-46.143 4.532-67.357 9.93-32.87-24.146-54.029-60.999-58.142-101.445-.419-4.121-4.105-7.115-8.22-6.703-4.121.42-7.122 4.1-6.703 8.221 4.161 40.921 24.111 78.509 55.325 105.021-26.037 8.363-49.457 19.959-69.066 34.392h-1.672l4.554-28.78c.647-4.091-2.145-7.933-6.236-8.58-4.091-.645-7.932 2.145-8.58 6.236l-3.666 23.168-2.431-5.999c-1.556-3.838-5.929-5.691-9.768-4.135s-5.69 5.929-4.135 9.768l3.372 8.322h-29.241c-4.142 0-7.5 3.357-7.5 7.5s3.358 7.5 7.5 7.5h459.658c4.143 0 7.5-3.357 7.5-7.5s-3.358-7.5-7.5-7.5zm-122.687-478.106c1.611-2.105 3.946-3.457 6.574-3.807.444-.059.888-.088 1.328-.088 2.167 0 4.264.707 6.014 2.047 4.347 3.326 5.176 9.57 1.849 13.917v.001c-3.328 4.346-9.571 5.173-13.917 1.848-4.347-3.329-5.176-9.572-1.848-13.918zm-185.455 125.436c0-43.183 35.131-78.313 78.313-78.313.086 0 .17.006.256.007 2.624 5.284 7.213 13.094 14.51 21.248 1.481 1.655 3.532 2.498 5.592 2.498 1.78 0 3.567-.63 4.999-1.911 3.086-2.763 3.35-7.504.587-10.591-6.393-7.143-10.309-13.921-12.469-18.35-.379-.778-.319-1.696.156-2.396.834-1.225 1.707-2.435 2.599-3.599 17.768-23.21 46.312-34.372 73.902-29.317-.078 1.521-.022 3.061.183 4.603.816 6.143 3.816 11.647 8.49 15.643 3.948 21.25-1.417 43.349-14.855 60.904-.729.95-1.478 1.884-2.229 2.779-.654.78-1.67 1.111-2.588.847-5.255-1.521-15.72-4.959-26.771-10.889-3.653-1.956-8.196-.586-10.155 3.063-1.958 3.65-.586 8.196 3.063 10.155 11.652 6.251 22.577 10.019 29.691 12.078.124.036.25.061.375.094 1.972 6.944 2.977 14.144 2.977 21.445 0 18.257-6.317 35.768-17.855 49.766-1.142-.469-2.291-.929-3.448-1.373v-6.543c0-3.975-1.827-7.618-5.013-9.995-3.187-2.378-7.198-3.089-11.007-1.961l-26.303 7.806c-3.034-2.552-6.942-4.096-11.208-4.096h-6.959c-4.232 0-8.115 1.518-11.139 4.034l-26.37-7.825c-3.81-1.132-7.822-.418-11.008 1.96-3.186 2.377-5.013 6.02-5.013 9.995v6.645c-1.152.442-2.297.897-3.437 1.366-11.545-13.998-17.866-31.515-17.866-49.777zm36.303 75.955v-30.798l21.087 6.258v18.282zm47.932-5.89c0 1.346-1.096 2.441-2.442 2.441h-6.959c-1.347 0-2.442-1.096-2.442-2.441v-19.019c0-1.347 1.096-2.442 2.442-2.442h6.959c1.347 0 2.442 1.096 2.442 2.442zm36.088 5.972-21.088-6.258v-18.282l21.088-6.258z"/><path d="m288.137 130.724h.103c4.143 0 7.5-3.357 7.5-7.5s-3.357-7.5-7.5-7.5h-.103c-4.143 0-7.5 3.357-7.5 7.5s3.358 7.5 7.5 7.5z"/><path d="m223.764 130.724h.102c4.142 0 7.5-3.357 7.5-7.5s-3.358-7.5-7.5-7.5h-.102c-4.142 0-7.5 3.357-7.5 7.5s3.358 7.5 7.5 7.5z"/><path d="m220.343 159.982c.951 0 1.918-.183 2.853-.566l33.803-13.919c3.83-1.577 5.656-5.961 4.08-9.791-1.579-3.831-5.962-5.655-9.791-4.08l-33.803 13.919c-3.83 1.577-5.657 5.961-4.08 9.791 1.192 2.896 3.989 4.646 6.938 4.646z"/><path d="m265.512 162.91c.865 3.392 3.915 5.647 7.261 5.647.614 0 1.238-.076 1.86-.235 4.014-1.024 6.437-5.108 5.412-9.121l-1.75-6.856c-1.023-4.014-5.11-6.438-9.121-5.412-4.014 1.024-6.437 5.108-5.412 9.121z"/><path d="m253.191 292.252c13.086 0 23.733-10.646 23.733-23.732 0-13.087-10.646-23.733-23.733-23.733-13.086 0-23.733 10.646-23.733 23.733-.001 13.086 10.646 23.732 23.733 23.732zm0-32.466c4.815 0 8.733 3.918 8.733 8.733s-3.918 8.732-8.733 8.732-8.733-3.917-8.733-8.732 3.917-8.733 8.733-8.733z"/><path d="m253.191 354.66c13.086 0 23.733-10.646 23.733-23.732 0-13.087-10.646-23.733-23.733-23.733-13.086 0-23.733 10.646-23.733 23.733-.001 13.086 10.646 23.732 23.733 23.732zm0-32.466c4.815 0 8.733 3.918 8.733 8.733s-3.918 8.732-8.733 8.732-8.733-3.917-8.733-8.732 3.917-8.733 8.733-8.733z"/></g></g></svg>