<svg width="928" height="699" viewBox="0 0 928 699" fill="none" xmlns="http://www.w3.org/2000/svg">
<g id="r_umbrellaWoman 1">
<g clip-path="url(#clip0)">
<path id="Vector" d="M464 698.877C720.26 698.877 928 685.222 928 668.377C928 651.532 720.26 637.877 464 637.877C207.74 637.877 0 651.532 0 668.377C0 685.222 207.74 698.877 464 698.877Z" fill="#3F3D56"/>
<path id="Vector_2" opacity="0.1" d="M467.556 682.877C555.922 682.877 627.556 675.266 627.556 665.877C627.556 656.488 555.922 648.877 467.556 648.877C379.19 648.877 307.556 656.488 307.556 665.877C307.556 675.266 379.19 682.877 467.556 682.877Z" fill="black"/>
<path id="Vector_3" d="M449.035 104.611C449.035 104.611 451.541 124.658 460.312 125.911C469.083 127.164 502.912 128.417 506.671 138.441C508.947 144.528 510.626 150.823 511.683 157.235L457.806 169.765L401.423 179.789L365.087 177.283C365.087 177.283 363.834 143.453 382.628 138.442C401.422 133.431 415.205 130.924 416.458 122.154C417.711 113.384 418.964 107.119 418.964 107.119L449.035 104.611Z" fill="#FFB9B9"/>
<path id="Vector_4" d="M535.488 231.159L580.594 305.083C580.594 305.083 619.435 337.66 601.894 342.672C584.353 347.684 566.811 310.095 566.811 310.095L511.682 247.45L535.488 231.159Z" fill="#FFB9B9"/>
<path id="Vector_5" d="M350.052 263.735L331.257 335.15C331.257 335.15 288.014 363.874 305.557 363.874C323.1 363.874 343.786 338.912 343.786 338.912L375.111 268.75L350.052 263.735Z" fill="#FFB9B9"/>
<path id="Vector_6" d="M510.429 385.271C510.429 385.271 511.682 466.713 517.947 472.977C524.212 479.241 527.971 565.695 526.718 583.237C525.465 600.779 529.224 614.561 529.224 617.067C529.224 619.573 509.177 620.826 509.177 620.826L480.359 422.86L510.429 385.271Z" fill="#FFB9B9"/>
<path id="Vector_7" d="M522.958 608.297L531.729 610.803C531.729 610.803 534.235 630.85 535.488 634.609C536.741 638.368 545.512 665.933 529.223 668.439C512.934 670.945 502.911 658.415 502.911 657.162C502.911 655.909 507.923 633.356 506.67 630.85C505.417 628.344 502.911 608.297 502.911 608.297H522.958Z" fill="#2F2E41"/>
<path id="Vector_8" opacity="0.1" d="M522.958 608.297L531.729 610.803C531.729 610.803 534.235 630.85 535.488 634.609C536.741 638.368 545.512 665.933 529.223 668.439C512.934 670.945 502.911 658.415 502.911 657.162C502.911 655.909 507.923 633.356 506.67 630.85C505.417 628.344 502.911 608.297 502.911 608.297H522.958Z" fill="black"/>
<path id="Vector_9" d="M396.41 612.055L387.639 614.561C387.639 614.561 385.133 634.608 383.88 638.367C382.627 642.126 373.856 669.691 390.145 672.197C406.434 674.703 416.457 662.173 416.457 660.92C416.457 659.667 411.445 637.114 412.698 634.608C413.951 632.102 416.457 612.055 416.457 612.055H396.41Z" fill="#2F2E41"/>
<path id="Vector_10" opacity="0.1" d="M396.41 612.055L387.639 614.561C387.639 614.561 385.133 634.608 383.88 638.367C382.627 642.126 373.856 669.691 390.145 672.197C406.434 674.703 416.457 662.173 416.457 660.92C416.457 659.667 411.445 637.114 412.698 634.608C413.951 632.102 416.457 612.055 416.457 612.055H396.41Z" fill="black"/>
<path id="Vector_11" d="M487.565 238.312L492.151 263.456C492.151 263.456 525.169 311.643 517.905 370.425C510.641 429.206 510.848 490.623 509.318 506.89C507.788 523.157 500.31 594.468 511.16 619.719C522.01 644.97 506.954 645.967 505.701 645.946C504.448 645.925 500.795 639.596 491.855 649.471C482.915 659.346 457.982 651.401 457.982 651.401C457.982 651.401 411.453 660.637 394.061 651.568C376.669 642.499 340.568 628.099 343.223 619.371C345.878 610.642 371.661 568.468 364.569 543.282C357.477 518.095 379.173 274.068 399.39 264.385L404.807 240.664L487.565 238.312Z" fill="#2F2E41"/>
<g id="head">
<path id="Vector_12" d="M437.773 114.07C461.655 114.07 481.015 94.7099 481.015 70.828C481.015 46.9461 461.655 27.586 437.773 27.586C413.891 27.586 394.531 46.9461 394.531 70.828C394.531 94.7099 413.891 114.07 437.773 114.07Z" fill="#2F2E41"/>
<path id="Vector_13" d="M431.494 115.887C448.102 115.887 461.565 102.424 461.565 85.816C461.565 69.2082 448.102 55.745 431.494 55.745C414.886 55.745 401.423 69.2082 401.423 85.816C401.423 102.424 414.886 115.887 431.494 115.887Z" fill="#FFB9B9"/>
<path id="Vector_14" d="M437.774 76.792C454.244 76.792 467.596 68.781 467.596 58.899C467.596 49.017 454.244 41.006 437.774 41.006C421.304 41.006 407.952 49.017 407.952 58.899C407.952 68.781 421.304 76.792 437.774 76.792Z" fill="#2F2E41"/>
<path id="Vector_15" d="M434.791 45.478C444.673 45.478 452.684 37.467 452.684 27.585C452.684 17.703 444.673 9.69199 434.791 9.69199C424.909 9.69199 416.898 17.703 416.898 27.585C416.898 37.467 424.909 45.478 434.791 45.478Z" fill="#2F2E41"/>
<path id="Vector_16" d="M458.65 17.894C458.65 13.471 457.012 9.20487 454.052 5.91806C451.092 2.63125 447.021 0.55655 442.622 0.0939941C443.241 0.0286406 443.863 -0.00474326 444.485 -0.00601196C449.231 -0.00601196 453.782 1.8792 457.138 5.23488C460.493 8.59056 462.379 13.1418 462.379 17.8875C462.379 22.6331 460.493 27.1844 457.138 30.5401C453.782 33.8958 449.231 35.781 444.485 35.781C443.862 35.7798 443.24 35.7464 442.621 35.681C447.02 35.2187 451.092 33.1441 454.052 29.8572C457.011 26.5704 458.65 22.3041 458.65 17.881V17.894Z" fill="#2F2E41"/>
</g>
<path id="shirt" d="M514.189 152.223L511.683 157.235C511.683 157.235 512.936 160.994 514.189 162.247C515.442 163.5 558.042 206.1 545.513 214.871C532.984 223.642 529.225 223.642 529.225 223.642C529.225 223.642 541.754 232.413 539.249 233.666C536.744 234.919 511.684 254.966 509.178 251.207C506.672 247.448 505.419 238.677 505.419 238.677C505.419 238.677 500.407 246.195 495.395 243.689C490.383 241.183 490.383 237.424 490.383 237.424L486.624 242.436L401.424 246.195C401.424 246.195 395.159 249.954 395.159 244.942C395.159 239.93 391.4 263.736 380.124 263.736C380.124 263.736 378.871 276.265 375.112 276.265C371.353 276.265 342.535 266.241 345.041 263.736C347.547 261.231 348.8 252.459 348.8 252.459C348.8 252.459 327.5 241.182 348.8 217.376C348.8 217.376 352.559 194.823 365.088 189.811C365.088 189.811 366.341 186.052 365.088 184.799C364.796 184.58 364.559 184.296 364.396 183.97C364.233 183.644 364.148 183.284 364.148 182.92C364.148 182.555 364.233 182.195 364.396 181.869C364.559 181.543 364.796 181.259 365.088 181.04C366.341 179.787 362.582 179.787 362.582 176.028C362.582 172.269 368.847 171.016 368.847 171.016C368.847 171.016 436.506 140.945 487.877 147.21L514.189 152.223Z" fill="#FF6584"/>
<g id="leaf">
<path id="Vector_17" d="M19.26 600.176C19.26 650.733 49.314 668.386 86.39 668.386C87.2487 668.386 88.1063 668.376 88.963 668.357C90.681 668.32 92.382 668.238 94.063 668.124C127.524 665.756 153.52 647.195 153.52 600.176C153.52 551.517 91.339 490.117 86.668 485.576L86.66 485.568C86.48 485.392 86.39 485.306 86.39 485.306C86.39 485.306 19.26 549.619 19.26 600.176Z" fill="#4285F4"/>
<path id="Vector_18" d="M88.836 660.65L64.283 626.343L88.897 664.417L88.962 668.356C90.68 668.319 92.381 668.237 94.062 668.123L91.416 617.541L91.436 617.148L91.391 617.074L91.141 612.297L115.816 574.129L91.063 608.714L91.006 609.728L89.006 571.511L110.131 532.071L88.748 564.804L86.666 485.572L86.658 485.302V485.564L87.006 548.044L65.975 523.275L87.0919 553.427L87.648 587.644L68.012 554.805L87.7299 592.679L88.041 611.702L59.533 565.996L88.147 618.34L88.836 660.65Z" fill="#3F3D56"/>
</g>
<g id="smallGrass">
<path id="Vector_19" d="M718.638 644.038V527.944" stroke="#3F3D56" stroke-width="2" stroke-miterlimit="10"/>
<path id="Vector_20" d="M718.638 544.361C727.705 544.361 735.055 537.011 735.055 527.944C735.055 518.877 727.705 511.527 718.638 511.527C709.571 511.527 702.221 518.877 702.221 527.944C702.221 537.011 709.571 544.361 718.638 544.361Z" fill="#3F3D56"/>
<path id="Vector_21" d="M718.638 599.495C718.638 599.495 720.983 549.052 769.062 554.915Z" fill="#3F3D56"/>
</g>
<g id="largeGrass">
<path id="Vector_22" d="M853.049 666.693V284.689" stroke="#3F3D56" stroke-width="2" stroke-miterlimit="10"/>
<path id="Vector_23" d="M853.049 300.922C862.116 300.922 869.466 293.572 869.466 284.505C869.466 275.438 862.116 268.088 853.049 268.088C843.982 268.088 836.632 275.438 836.632 284.505C836.632 293.572 843.982 300.922 853.049 300.922Z" fill="#3F3D56"/>
<path id="Vector_24" d="M903.473 581.087C912.54 581.087 919.89 573.737 919.89 564.67C919.89 555.603 912.54 548.253 903.473 548.253C894.406 548.253 887.056 555.603 887.056 564.67C887.056 573.737 894.406 581.087 903.473 581.087Z" fill="#3F3D56"/>
<path id="Vector_25" d="M853.049 368.366C853.049 368.366 855.394 317.923 903.473 323.786Z" fill="#3F3D56"/>
<path id="Vector_26" d="M853.049 511.366C853.049 511.366 855.394 460.923 903.473 466.786Z" fill="#3F3D56"/>
<path id="Vector_27" d="M853.049 662.18C853.049 662.18 842.495 569.362 903.473 564.671" stroke="#3F3D56" stroke-width="2" stroke-miterlimit="10"/>
<path id="Vector_28" d="M802.617 581.087C811.684 581.087 819.034 573.737 819.034 564.67C819.034 555.603 811.684 548.253 802.617 548.253C793.55 548.253 786.2 555.603 786.2 564.67C786.2 573.737 793.55 581.087 802.617 581.087Z" fill="#3F3D56"/>
<path id="Vector_29" d="M853.041 662.18C853.041 662.18 863.595 569.362 802.617 564.671" stroke="#3F3D56" stroke-width="2" stroke-miterlimit="10"/>
<path id="Vector_30" d="M801.617 427.087C810.684 427.087 818.034 419.737 818.034 410.67C818.034 401.603 810.684 394.253 801.617 394.253C792.55 394.253 785.2 401.603 785.2 410.67C785.2 419.737 792.55 427.087 801.617 427.087Z" fill="#3F3D56"/>
<path id="Vector_31" d="M852.041 508.18C852.041 508.18 862.595 415.362 801.617 410.671" stroke="#3F3D56" stroke-width="2" stroke-miterlimit="10"/>
</g>
<g id="umbrella">
<path id="Vector_32" d="M740.591 59.0248C740.591 59.0248 748.104 44.866 757.746 51.482C767.388 58.0981 754.75 66.5373 754.75 66.5373L740.292 60.5303" fill="#3F3D56"/>
<path id="Vector_33" d="M845.587 270.881L844.413 300.388C844.413 300.388 808.556 268.209 767.013 280.298C767.013 280.298 709.14 217.13 655.549 218.991C655.549 218.991 640.144 170.532 553.403 142.32C553.403 142.32 545.826 93.8529 503.956 76.1323L532.242 59.8469L583.429 62.2026L653.308 88.6227L739.481 151.158L837.702 216.092L845.587 270.881Z" fill="#4285F4"/>
<path id="Vector_34" opacity="0.1" d="M785.31 211.93C785.31 211.93 780.55 267.334 767.014 280.295Z" fill="black"/>
<path id="Vector_35" opacity="0.1" d="M605.739 91.681C605.739 91.681 561.215 126.653 553.402 142.317Z" fill="black"/>
<path id="Vector_36" d="M750.529 60.2192C750.529 60.2192 766.199 75.8574 779.154 81.5669C779.154 81.5669 883.122 172.688 843.81 299.486C843.81 299.486 832.906 236.269 791.96 237.516C791.96 237.516 767.513 179.432 687.41 165.062C687.41 165.062 661.764 113.001 575.938 95.9277C575.938 95.9277 555.724 55.9047 503.355 75.2273C503.355 75.2273 568.911 -2.52033 715.283 40.6856C715.282 40.6846 741.494 58.4212 750.529 60.2192Z" fill="#4285F4"/>
<path id="Vector_37" opacity="0.1" d="M779.758 82.4699C779.758 82.4699 821.383 156.494 792.564 238.418Z" fill="black"/>
<path id="Vector_38" opacity="0.1" d="M688.012 165.964C718.128 133.172 739.007 98.187 751.132 61.1222Z" fill="black"/>
<path id="Vector_39" opacity="0.1" d="M576.54 96.8297C576.54 96.8297 629.658 34.3939 715.681 42.6134Z" fill="black"/>
<path id="Vector_40" opacity="0.1" d="M845.587 270.881L844.413 300.388C844.413 300.388 808.556 268.209 767.013 280.298C767.013 280.298 709.14 217.13 655.549 218.991C655.549 218.991 640.144 170.532 553.403 142.32C553.403 142.32 545.826 93.8529 503.956 76.1323L532.242 59.8469L583.429 62.2026L653.308 88.6227L739.481 151.158L837.702 216.092L845.587 270.881Z" fill="black"/>
</g>
<path id="Vector_41" d="M703.706 158.179L594.596 336.835C594.596 336.835 576.26 366.055 554.864 347.713C542 336.684 544.807 323.677 549.09 315.062C553.666 305.858 567.662 311.116 564.912 321.021C564.868 321.182 564.821 321.344 564.772 321.508C564.772 321.508 564.314 342.631 578.345 332.141C581.557 329.692 584.253 326.633 586.28 323.139L687.742 151.872L703.706 158.179Z" fill="#3F3D56"/>
</g>
</g>
<defs>
<clipPath id="clip0">
<rect width="928" height="698.877" fill="white"/>
</clipPath>
</defs>
</svg>
