<svg width="953" height="710" viewBox="0 0 953 710" fill="none" xmlns="http://www.w3.org/2000/svg">
<g id="s_bruh ">
<g clip-path="url(#clip0)">
<g id="R_Leg">
<path id="Vector" d="M835.745 646.582L811.901 635.688L792.382 678.41L816.227 689.303L835.745 646.582Z" fill="#2F2E41"/>
<path id="Vector_2" d="M819.899 708.394C823.585 705.77 820.901 695.675 813.904 685.846C806.907 676.017 798.246 670.176 794.56 672.8C790.875 675.424 793.559 685.519 800.556 695.348C807.553 705.177 816.213 711.018 819.899 708.394Z" fill="#2F2E41"/>
</g>
<g id="L_Leg">
<path id="Vector_3" d="M766.65 674.925L742.805 664.031L764.211 613.9L788.056 624.794L766.65 674.925Z" fill="#2F2E41"/>
<path id="Vector_4" d="M771.315 694.47C775.001 691.846 772.317 681.751 765.32 671.921C758.323 662.092 749.663 656.251 745.977 658.875C742.291 661.499 744.975 671.594 751.972 681.423C758.969 691.253 767.63 697.094 771.315 694.47Z" fill="#2F2E41"/>
</g>
<g id="alienHead">
<path id="Vector_5" d="M828.121 654.935C875.779 654.935 914.413 616.3 914.413 568.642C914.413 520.984 875.779 482.35 828.121 482.35C780.463 482.35 741.829 520.984 741.829 568.642C741.829 616.3 780.463 654.935 828.121 654.935Z" fill="#2F2E41"/>
<path id="Vector_6" d="M839.186 579.172C855.475 579.172 868.679 565.968 868.679 549.68C868.679 533.391 855.475 520.187 839.186 520.187C822.898 520.187 809.694 533.391 809.694 549.68C809.694 565.968 822.898 579.172 839.186 579.172Z" fill="white"/>
<path id="Vector_7" d="M828.542 546.259C833.972 546.259 838.373 541.857 838.373 536.428C838.373 530.999 833.972 526.597 828.542 526.597C823.113 526.597 818.712 530.999 818.712 536.428C818.712 541.857 823.113 546.259 828.542 546.259Z" fill="#3F3D56"/>
<path id="Vector_8" d="M952.348 574.121C952.529 566.642 933.364 560.114 909.542 559.538C885.72 558.963 866.262 564.559 866.081 572.038C865.901 579.516 885.066 586.045 908.888 586.62C932.71 587.196 952.168 581.599 952.348 574.121Z" fill="#2F2E41"/>
<path id="Vector_9" d="M796.759 595.745C794.592 600.488 794.398 605.898 796.219 610.784C798.041 615.67 801.729 619.632 806.472 621.799C811.215 623.966 816.624 624.16 821.511 622.338C826.397 620.517 830.359 616.829 832.526 612.086C837.038 602.209 829.966 596.506 820.089 591.993C810.213 587.481 801.271 585.868 796.759 595.745Z" fill="white"/>
<path id="Vector_10" d="M781.249 559.598C781.43 552.12 762.264 545.591 738.442 545.016C714.62 544.441 695.162 550.037 694.982 557.515C694.801 564.994 713.966 571.523 737.788 572.098C761.61 572.673 781.068 567.077 781.249 559.598Z" fill="#2F2E41"/>
</g>
<path id="alienHat" d="M785.333 460.865C791.962 429.587 825.324 410.163 859.848 417.481C894.372 424.799 916.985 456.087 910.355 487.365C903.725 518.643 878.181 519.625 843.657 512.308C809.133 504.99 778.703 492.143 785.333 460.865Z" fill="#CFCCE0"/>
<path id="Vector_11" d="M62.0045 106.815L53.8501 140.792L102.777 151.664C102.777 151.664 98.6995 113.61 102.777 109.533L62.0045 106.815Z" fill="#A0616A"/>
<path id="Vector_12" d="M55.8887 357.564C55.8887 357.564 85.7883 399.695 106.174 410.568L174.128 502.985L156.46 672.869C156.46 672.869 199.95 701.409 258.391 660.637L240.723 475.803L163.256 341.255L55.8887 357.564Z" fill="#2F2E41"/>
<path id="Vector_13" d="M173.227 672.538C173.227 672.538 152.765 706.208 182.856 708.249C212.946 710.289 232.204 703.147 241.833 708.249C251.462 713.35 287.571 707.228 283.96 690.904C280.349 674.579 233.408 663.355 233.408 663.355L173.227 672.538Z" fill="#2F2E41"/>
<path id="Vector_14" d="M36.5412 302.473C36.5412 302.473 47.2723 353.009 61.6719 371.077L87.3842 482.87L3.76776 631.803C3.76776 631.803 32.3661 675.255 102.186 661.014L159.297 484.339L141.567 330.099L36.5412 302.473Z" fill="#2F2E41"/>
<path id="Vector_15" d="M19.329 633.018C19.329 633.018 -11.8244 655.476 14.9377 671.094C41.6999 686.712 61.9496 688.736 68.8696 697.932C75.7896 707.127 111.071 717.782 113.802 700.736C116.533 683.689 77.7549 651.739 77.7549 651.739L19.329 633.018Z" fill="#2F2E41"/>
<g id="humanHand">
<g id="Group 1">
<path id="Vector_16" d="M242.556 344.228C217.683 337.861 201.188 318.369 201.188 318.369C201.188 318.369 225.02 309.202 249.892 315.569C274.765 321.937 291.26 341.428 291.26 341.428C291.26 341.428 267.428 350.596 242.556 344.228Z" fill="#4285F4"/>
<path id="Vector_17" d="M197.986 312.05L199.54 311.452C199.781 311.36 224.013 302.223 248.962 308.61C273.912 314.998 290.772 334.652 290.94 334.85L292.015 336.121L290.461 336.719C290.219 336.812 265.988 345.948 241.039 339.561C216.088 333.174 199.229 313.519 199.061 313.321L197.986 312.05ZM287.952 335.081C283.779 330.655 268.878 316.152 248.376 310.902C227.852 305.648 207.832 311.211 202.049 313.09C206.222 317.516 221.123 332.02 241.625 337.269C262.149 342.523 282.169 336.959 287.952 335.081Z" fill="#3F3D56"/>
</g>
<path id="Vector_18" d="M189.757 297.085C189.757 297.085 218.298 294.367 212.862 316.112C207.425 337.857 174.808 324.266 174.808 324.266L189.757 297.085Z" fill="#A0616A"/>
</g>
<g id="humanHead">
<path id="Vector_19" d="M56.9332 128.11C75.6764 129.012 91.6025 114.55 92.5051 95.8067C93.4078 77.0636 78.9452 61.1375 60.202 60.2348C41.4589 59.3322 25.5328 73.7947 24.6301 92.5379C23.7275 111.281 38.19 127.207 56.9332 128.11Z" fill="#A0616A"/>
<path id="Vector_20" d="M92.7168 85.627C92.7168 85.627 98.1406 47.2721 57.7029 59.3592C57.7029 59.3592 29.0031 53.716 19.1128 89.5791L26.7086 125.113L28.1716 132.914L89.8811 139.858C89.8811 139.858 62.4153 123.141 62.3485 93.8036L67.5491 99.4408L92.7168 85.627Z" fill="#2F2E41"/>
<path id="Vector_21" d="M24.4986 109.397C24.4986 109.397 59.3668 63.4532 93.9426 80.0854C93.9426 80.0854 92.7313 48.7322 71.142 44.9712C49.5528 41.2102 37.6622 33.8343 37.6622 33.8343L18.1996 42.4215L16.9574 68.214C16.9574 68.214 13.9001 103.444 24.4986 109.397Z" fill="#3F3D56"/>
<path id="Vector_22" d="M17.3504 45.9253C27.8466 46.4308 36.7652 38.3317 37.2707 27.8355C37.7762 17.3394 29.6771 8.42076 19.181 7.91527C8.68479 7.40978 -0.233816 15.5088 -0.739305 26.005C-1.24479 36.5012 6.85425 45.4198 17.3504 45.9253Z" fill="#CFCCE0"/>
</g>
<g id="humanTorso">
<path id="Vector_23" d="M184.321 355.525C184.321 362.32 105.495 381.347 57.9273 374.552C35.5434 371.358 26.7095 344.979 23.6107 317.96C22.5666 308.333 22.0811 298.654 22.1564 288.971C22.1837 282.72 22.3877 276.971 22.6594 272.092C23.1893 262.524 23.9505 256.313 23.9505 256.313L21.5313 243.035L18.6094 226.97L13.4993 198.837L13.0779 196.513C-12.7445 184.282 7.64161 125.842 7.64161 120.405C7.64161 114.969 41.6184 124.483 41.6184 124.483L48.4138 114.969L70.159 121.764L93.8475 108.935L116.367 139.432C116.367 139.432 124.372 151.813 133.995 170.351C138.058 178.193 142.407 187.136 146.566 196.704C148.714 201.651 150.807 206.774 152.777 212.007C155.4 218.938 157.819 226.06 159.858 233.208C160.429 235.193 160.986 237.204 161.543 239.243C162.929 244.353 164.288 249.653 165.593 255.049C167.836 264.209 169.942 273.641 171.899 282.896C179.333 318.273 184.321 350.918 184.321 355.525Z" fill="#3F3D56"/>
<path id="Vector_24" d="M146.566 196.704L18.6094 226.97L13.4993 198.837L133.995 170.351C138.058 178.193 142.407 187.136 146.566 196.704Z" fill="#CFCCE0"/>
<path id="Vector_25" d="M22.6594 272.092C23.1893 262.524 23.9505 256.313 23.9505 256.313L21.5313 243.035L152.777 212.007C155.4 218.938 157.819 226.06 159.858 233.208C160.429 235.193 160.986 237.204 161.543 239.243L22.6594 272.092Z" fill="#CFCCE0"/>
<path id="Vector_26" d="M171.899 282.896L23.6107 317.96C22.5666 308.333 22.081 298.654 22.1564 288.971L165.593 255.049C167.836 264.209 169.942 273.641 171.899 282.896Z" fill="#CFCCE0"/>
<path id="Vector_27" opacity="0.1" d="M17.1551 181.564C17.1551 181.564 32.1049 125.842 67.4408 136.714C67.4408 136.714 32.1049 138.073 17.1551 181.564Z" fill="black"/>
<g id="Group 2">
<path id="Vector_28" d="M201.989 293.008L184.321 332.421C184.321 332.421 177.702 329.947 167.673 326.156C164.574 324.987 161.149 323.696 157.493 322.309C155.618 321.589 153.674 320.855 151.69 320.094C148.415 318.857 145.003 317.553 141.524 316.221C139.621 315.487 137.678 314.739 135.734 313.992C132.377 312.687 128.98 311.382 125.596 310.064C100.82 300.455 76.5194 290.697 71.5181 287.571C64.0704 282.91 41.3059 242.545 27.7152 217.566C23.1555 209.328 20.5821 200.14 20.1999 190.733C19.8177 181.326 21.6371 171.959 25.5135 163.379C33.2331 146.69 44.2958 143.143 54.2987 144.42C67.8895 146.16 78.5309 157.019 80.7735 170.528L91.9042 237.286L147.613 265.486L157.276 270.379L162.794 273.165L172.456 278.058L177.961 280.844L187.624 285.737L201.989 293.008Z" fill="#3F3D56"/>
<path id="Vector_29" d="M157.276 270.379L135.734 313.992C132.377 312.687 128.98 311.382 125.596 310.064L147.613 265.486L157.276 270.379Z" fill="#CFCCE0"/>
<path id="Vector_30" d="M172.456 278.058L151.69 320.094C148.415 318.857 145.003 317.553 141.524 316.221L162.793 273.165L172.456 278.058Z" fill="#CFCCE0"/>
<path id="Vector_31" d="M187.624 285.737L167.673 326.156C164.574 324.987 161.149 323.696 157.493 322.309L177.961 280.844L187.624 285.737Z" fill="#CFCCE0"/>
</g>
</g>
<g id="Leaf">
<path id="Vector_32" d="M807.538 491.436C806.895 653.099 710.563 709.155 592.021 708.684C589.267 708.673 586.527 708.631 583.8 708.559C578.307 708.418 572.871 708.146 567.493 707.743C460.535 699.742 377.641 640.074 378.239 489.728C378.858 334.139 578.493 138.58 593.464 124.121C593.477 124.121 593.477 124.121 593.49 124.108C594.059 123.557 594.35 123.282 594.35 123.282C594.35 123.282 808.181 329.787 807.538 491.436Z" fill="#4285F4"/>
<path id="Vector_33" d="M584.307 683.924L663.249 574.547L584.061 695.965L583.8 708.559C578.307 708.418 572.871 708.146 567.493 707.743L576.595 546.048L576.534 544.797L576.68 544.56L577.544 529.281L499.128 406.933L577.827 517.833L578.011 521.075L584.887 398.908L517.844 272.535L585.803 377.437L593.464 124.121L593.493 123.278L593.49 124.108L591.589 323.893L659.132 244.956L591.23 341.097L589.016 450.503L652.236 345.754L588.702 466.588L587.472 527.423L679.194 381.63L587.032 548.646L584.307 683.924Z" fill="#3F3D56"/>
<path id="Vector_34" d="M625.592 209.142C628.353 209.155 630.601 206.926 630.614 204.165C630.626 201.403 628.398 199.155 625.636 199.143C622.875 199.13 620.626 201.359 620.614 204.12C620.602 206.882 622.83 209.13 625.592 209.142Z" fill="#CFCCE0"/>
<path id="Vector_35" d="M704.368 483.497C707.129 483.509 709.377 481.281 709.39 478.519C709.402 475.758 707.174 473.509 704.412 473.497C701.651 473.485 699.402 475.713 699.39 478.475C699.378 481.236 701.606 483.485 704.368 483.497Z" fill="#CFCCE0"/>
<path id="Vector_36" d="M420.205 519.229C422.967 519.241 425.215 517.012 425.227 514.251C425.24 511.49 423.011 509.241 420.25 509.229C417.488 509.216 415.24 511.445 415.228 514.206C415.215 516.968 417.444 519.216 420.205 519.229Z" fill="#CFCCE0"/>
<path id="Vector_37" d="M520.878 592.679C526.953 592.706 531.9 587.803 531.927 581.728C531.954 575.653 527.052 570.706 520.976 570.679C514.901 570.652 509.955 575.555 509.927 581.63C509.9 587.705 514.803 592.652 520.878 592.679Z" fill="#CFCCE0"/>
<path id="Vector_38" d="M463.901 363.422C469.976 363.449 474.923 358.546 474.95 352.471C474.977 346.396 470.074 341.45 463.999 341.422C457.924 341.395 452.978 346.298 452.95 352.373C452.923 358.448 457.826 363.395 463.901 363.422Z" fill="#CFCCE0"/>
</g>
<path id="Vector_39" d="M873.679 708H16.6793V710H873.679V708Z" fill="#3F3D56"/>
</g>
</g>
<defs>
<clipPath id="clip0">
<rect width="952.35" height="710" fill="white"/>
</clipPath>
</defs>
</svg>
